<?xml version="1.0" encoding="utf-8"?>
<!-- Generator: Adobe Illustrator 16.0.0, SVG Export Plug-In . SVG Version: 6.00 Build 0)  -->
<!DOCTYPE svg PUBLIC "-//W3C//DTD SVG 1.1//EN" "http://www.w3.org/Graphics/SVG/1.1/DTD/svg11.dtd">
<svg version="1.1" id="圖層_1" xmlns="http://www.w3.org/2000/svg" xmlns:xlink="http://www.w3.org/1999/xlink" x="0px" y="0px"
	 width="260px" height="65px" viewBox="0 0 260 65" enable-background="new 0 0 260 65" xml:space="preserve">
<g>
	<rect x="0.5" y="0.5" fill="#439FA7" width="91.389" height="64"/>
	<path fill="#333333" d="M91.389,1v63H1V1H91.389 M92.389,0H0v65h92.389V0L92.389,0z"/>
</g>
<g>
	<g>
		<path fill="#FFFFFF" d="M14.586,35.563c-0.276,0-0.5-0.224-0.5-0.5v-2.796c0-0.276,0.224-0.5,0.5-0.5h63.213
			c0.276,0,0.5,0.224,0.5,0.5v2.796c0,0.276-0.224,0.5-0.5,0.5H14.586z"/>
		<path fill="#333333" d="M77.799,32.267v2.796H14.586v-2.796H77.799 M77.799,31.267H14.586c-0.552,0-1,0.448-1,1v2.796
			c0,0.552,0.448,1,1,1h63.213c0.552,0,1-0.448,1-1v-2.796C78.799,31.715,78.352,31.267,77.799,31.267L77.799,31.267z"/>
	</g>
	<g>
		<path fill="#FFFFFF" d="M10.899,42.772c-0.276,0-0.5-0.224-0.5-0.5v-2.807c0-0.276,0.224-0.5,0.5-0.5h70.59
			c0.276,0,0.5,0.224,0.5,0.5v2.807c0,0.276-0.224,0.5-0.5,0.5H10.899z"/>
		<path fill="#333333" d="M81.489,39.465v2.807h-70.59v-2.807H81.489 M81.489,38.465h-70.59c-0.552,0-1,0.448-1,1v2.807
			c0,0.552,0.448,1,1,1h70.59c0.552,0,1-0.448,1-1v-2.807C82.489,38.913,82.041,38.465,81.489,38.465L81.489,38.465z"/>
	</g>
	<g>
		<g>
			<path fill="#FFFFFF" d="M20.649,29.222c-0.276,0-0.5-0.224-0.5-0.5v-0.316c0-0.276,0.224-0.5,0.5-0.5
				c0.705,0,1.227-0.202,1.595-0.617c0.205-0.229,0.344-0.521,0.427-0.894c0.059-0.292,0.132-0.879,0.132-1.97V14.309
				c0-0.935-0.049-1.619-0.146-2.033c-0.08-0.369-0.229-0.659-0.458-0.895c-0.182-0.187-0.386-0.323-0.607-0.406
				c-0.232-0.085-0.558-0.14-0.966-0.159c-0.266-0.013-0.476-0.233-0.476-0.5v-0.294c0-0.276,0.224-0.5,0.5-0.5h8.065
				c0.276,0,0.5,0.224,0.5,0.5v0.294c0,0.264-0.206,0.483-0.469,0.499c-0.411,0.025-0.748,0.085-1.001,0.178
				c-0.224,0.083-0.418,0.213-0.594,0.398c-0.222,0.229-0.371,0.524-0.459,0.906c-0.062,0.28-0.136,0.863-0.136,2.018v7.92
				c0,1.25,0.027,2.124,0.084,2.669c0.053,0.547,0.152,0.979,0.295,1.289c0.256,0.57,0.616,0.966,1.1,1.214
				c0.509,0.272,1.208,0.409,2.083,0.409c0.925,0,1.713-0.134,2.34-0.397c0.606-0.252,1.104-0.646,1.481-1.169
				c0.263-0.361,0.48-0.78,0.666-1.281c0.186-0.518,0.357-1.182,0.506-1.971c0.045-0.238,0.252-0.407,0.491-0.407
				c0.011,0,0.335,0.021,0.335,0.021c0.268,0.018,0.475,0.245,0.467,0.514l-0.165,5.611c-0.008,0.271-0.229,0.485-0.5,0.485H20.649z
				"/>
			<path fill="#333333" d="M28.715,10.023v0.294c-0.469,0.029-0.846,0.099-1.142,0.208c-0.296,0.11-0.558,0.284-0.785,0.523
				c-0.291,0.301-0.479,0.683-0.584,1.138c-0.099,0.451-0.148,1.168-0.148,2.13v7.92c0,1.214,0.025,2.124,0.087,2.721
				c0.058,0.592,0.169,1.08,0.338,1.447c0.3,0.666,0.737,1.147,1.325,1.45c0.58,0.31,1.351,0.464,2.313,0.464
				c1.002,0,1.85-0.149,2.534-0.436c0.689-0.287,1.256-0.732,1.693-1.338c0.299-0.411,0.535-0.876,0.729-1.4
				c0.188-0.521,0.369-1.206,0.529-2.052l0.301,0.02l-0.165,5.611h-15.09v-0.001v-0.315c0.849,0,1.506-0.264,1.969-0.785
				c0.265-0.296,0.44-0.662,0.541-1.118c0.092-0.455,0.144-1.146,0.144-2.078V14.309c0-0.968-0.051-1.687-0.159-2.146
				c-0.101-0.466-0.301-0.835-0.586-1.129c-0.235-0.242-0.499-0.417-0.791-0.526c-0.288-0.106-0.664-0.168-1.116-0.19v-0.294H28.715
				 M28.715,9.023H20.65c-0.552,0-1,0.448-1,1v0.294c0,0.533,0.419,0.973,0.952,0.999c0.444,0.021,0.69,0.082,0.818,0.129
				c0.151,0.056,0.289,0.15,0.42,0.285c0.164,0.169,0.268,0.374,0.326,0.645c0.064,0.274,0.136,0.817,0.136,1.935v10.116
				c0,1.049-0.067,1.601-0.124,1.879c-0.061,0.273-0.159,0.486-0.306,0.649c-0.271,0.306-0.67,0.452-1.224,0.452
				c-0.552,0-1,0.448-1,1v0.315c0,0.552,0.448,1.001,1,1.001h15.09c0.541,0,0.984-0.43,1-0.971l0.165-5.611
				c0.016-0.538-0.396-0.991-0.933-1.027l-0.301-0.02c-0.022-0.002-0.045-0.002-0.067-0.002c-0.477,0-0.892,0.339-0.982,0.814
				c-0.143,0.753-0.311,1.409-0.487,1.899c-0.167,0.449-0.362,0.828-0.597,1.15c-0.329,0.458-0.743,0.785-1.268,1.003
				c-0.568,0.239-1.291,0.359-2.149,0.359c-0.793,0-1.412-0.116-1.841-0.346c-0.398-0.205-0.675-0.514-0.885-0.979
				c-0.085-0.186-0.196-0.525-0.255-1.133c-0.055-0.535-0.082-1.391-0.082-2.624v-7.92c0-1.111,0.068-1.655,0.125-1.917
				c0.064-0.279,0.172-0.498,0.326-0.657c0.128-0.134,0.261-0.224,0.414-0.281c0.139-0.051,0.404-0.119,0.856-0.147
				c0.527-0.032,0.938-0.47,0.938-0.998v-0.294C29.715,9.471,29.267,9.023,28.715,9.023L28.715,9.023z"/>
		</g>
		<g>
			<path fill="#FFFFFF" d="M42.325,29.69c-0.758,0-1.493-0.152-2.185-0.452c-0.718-0.31-1.304-0.735-1.743-1.264
				c-0.822-0.943-1.242-2.16-1.242-3.607c0-1.411,0.393-2.706,1.166-3.847c0.313-0.455,0.683-0.881,1.102-1.271
				c0.409-0.37,0.917-0.772,1.514-1.201c-0.383-0.61-0.685-1.146-0.881-1.567c-0.54-1.123-0.815-2.169-0.815-3.106
				c0-0.618,0.135-1.218,0.402-1.786c0.322-0.76,0.826-1.363,1.49-1.775c0.666-0.409,1.45-0.616,2.332-0.616
				c1.165,0,2.146,0.359,2.917,1.067c0.78,0.705,1.177,1.629,1.177,2.745c0,0.798-0.2,1.526-0.596,2.163
				c-0.39,0.611-0.987,1.188-1.83,1.77c-0.293,0.203-0.537,0.375-0.731,0.514l3.491,5.233c0.381-0.802,0.661-1.443,0.833-1.913
				c0.215-0.58,0.324-1.067,0.324-1.448c0-0.268,0-0.894-1.351-1.103c-0.244-0.038-0.424-0.248-0.424-0.494v-0.286
				c0-0.276,0.224-0.5,0.5-0.5H52.7c0.276,0,0.5,0.224,0.5,0.5v0.263c0,0.257-0.194,0.472-0.45,0.498
				c-0.361,0.036-0.616,0.091-0.778,0.166c-0.208,0.088-0.383,0.211-0.551,0.384c-0.371,0.375-0.872,1.265-1.491,2.647l-0.39,0.877
				c-0.188,0.434-0.454,1-0.796,1.685c0.276,0.381,0.588,0.78,0.931,1.191c0.377,0.464,0.755,0.891,1.127,1.272
				c0.448,0.446,0.837,0.77,1.155,0.958c0.292,0.17,0.552,0.253,0.789,0.253c0.231,0,0.417-0.067,0.569-0.204
				c0.189-0.172,0.362-0.468,0.513-0.879c0.049-0.132,0.151-0.238,0.282-0.291c0.06-0.024,0.124-0.036,0.187-0.036
				c0.075,0,0.15,0.017,0.219,0.05l0.247,0.12c0.215,0.105,0.326,0.348,0.264,0.58c-0.601,2.238-2.072,2.708-3.2,2.708
				c-0.529,0-1.078-0.105-1.63-0.313c-0.569-0.224-1.077-0.52-1.515-0.881c-0.523-0.43-1.059-0.968-1.597-1.604
				c-0.211,0.316-0.397,0.577-0.565,0.779c-0.531,0.65-1.167,1.156-1.886,1.503C43.913,29.517,43.137,29.69,42.325,29.69z
				 M41.779,19.276c-0.441,0.385-0.795,0.865-1.055,1.432c-0.356,0.772-0.536,1.639-0.536,2.578c0,0.668,0.092,1.289,0.282,1.896
				c0.188,0.612,0.432,1.11,0.745,1.524c0.27,0.347,0.603,0.624,0.987,0.817c0.378,0.194,0.78,0.292,1.196,0.292
				c0.667,0,1.247-0.223,1.773-0.682c0.205-0.18,0.391-0.38,0.551-0.592c0.145-0.196,0.313-0.455,0.502-0.772L41.779,19.276z
				 M43.11,10.553c-0.446,0-0.778,0.142-1.043,0.445c-0.284,0.323-0.422,0.74-0.422,1.277c0,0.328,0.064,0.665,0.192,1.001
				c0.101,0.275,0.319,0.76,0.792,1.537c0.284,0.478,0.592,0.961,0.936,1.47c0.177-0.171,0.31-0.315,0.407-0.442
				c0.172-0.229,0.326-0.503,0.455-0.811c0.268-0.621,0.403-1.286,0.403-1.983c0-0.804-0.17-1.438-0.506-1.885
				C44.017,10.752,43.62,10.553,43.11,10.553z"/>
			<path fill="#333333" d="M43.465,9.701c1.04,0,1.907,0.318,2.58,0.936c0.676,0.611,1.015,1.404,1.015,2.376
				c0,0.708-0.175,1.342-0.521,1.899C46.19,15.459,45.625,16,44.85,16.534c-0.546,0.379-0.925,0.649-1.129,0.804l4.242,6.358
				c0.586-1.191,1-2.108,1.234-2.744c0.234-0.63,0.355-1.171,0.355-1.621c0-0.879-0.59-1.414-1.774-1.597v-0.286H52.7v0.263
				c-0.387,0.039-0.704,0.101-0.938,0.21c-0.25,0.106-0.48,0.265-0.698,0.488c-0.43,0.435-0.953,1.371-1.589,2.792l-0.39,0.879
				c-0.21,0.487-0.518,1.137-0.921,1.932c0.317,0.455,0.695,0.947,1.129,1.467c0.431,0.531,0.821,0.961,1.154,1.301
				c0.479,0.477,0.899,0.826,1.258,1.038c0.359,0.209,0.703,0.323,1.043,0.323c0.36,0,0.663-0.114,0.905-0.334
				c0.244-0.221,0.461-0.573,0.646-1.076l0.247,0.12c-0.42,1.563-1.324,2.337-2.717,2.337c-0.46,0-0.945-0.09-1.454-0.281
				c-0.497-0.195-0.961-0.459-1.373-0.799c-0.628-0.516-1.282-1.199-1.96-2.064c-0.371,0.578-0.667,1.019-0.905,1.307
				c-0.492,0.601-1.063,1.056-1.718,1.371c-0.653,0.312-1.357,0.468-2.092,0.468c-0.686,0-1.347-0.134-1.986-0.411
				c-0.63-0.272-1.156-0.641-1.557-1.124c-0.757-0.869-1.127-1.964-1.127-3.288c0-1.31,0.354-2.496,1.08-3.567
				c0.286-0.415,0.628-0.813,1.028-1.185c0.401-0.363,0.95-0.799,1.647-1.29l0.2-0.153c-0.521-0.799-0.885-1.44-1.101-1.902
				c-0.517-1.075-0.768-2.043-0.768-2.895c0-0.53,0.111-1.055,0.354-1.573c0.292-0.689,0.728-1.208,1.3-1.563
				C41.973,9.888,42.658,9.701,43.465,9.701 M43.479,17.039c0.395-0.346,0.694-0.64,0.889-0.894c0.195-0.258,0.37-0.564,0.52-0.922
				c0.292-0.675,0.441-1.4,0.441-2.175c0-0.919-0.201-1.646-0.606-2.186c-0.401-0.535-0.941-0.809-1.613-0.809
				c-0.589,0-1.062,0.206-1.42,0.616c-0.365,0.414-0.545,0.949-0.545,1.606c0,0.392,0.076,0.787,0.225,1.179
				c0.145,0.395,0.416,0.936,0.833,1.62C42.595,15.732,43.021,16.383,43.479,17.039 M43.398,28.316c0.786,0,1.487-0.269,2.102-0.805
				c0.226-0.199,0.438-0.425,0.622-0.669c0.187-0.252,0.418-0.611,0.694-1.093l-4.922-7.19c-0.696,0.47-1.245,1.115-1.624,1.941
				c-0.386,0.837-0.582,1.763-0.582,2.787c0,0.713,0.1,1.39,0.304,2.045c0.204,0.664,0.478,1.22,0.824,1.677
				c0.32,0.412,0.708,0.733,1.16,0.962C42.425,28.2,42.899,28.316,43.398,28.316 M43.465,8.701c-0.976,0-1.848,0.232-2.592,0.689
				c-0.757,0.469-1.327,1.149-1.698,2.024c-0.282,0.599-0.434,1.271-0.434,1.963c0,1.012,0.292,2.132,0.867,3.328
				c0.157,0.336,0.382,0.749,0.662,1.213c-0.445,0.332-0.844,0.655-1.177,0.957c-0.456,0.423-0.85,0.877-1.182,1.359
				c-0.835,1.232-1.256,2.621-1.256,4.134c0,1.572,0.462,2.899,1.373,3.944c0.474,0.572,1.123,1.044,1.915,1.385
				c0.754,0.327,1.556,0.493,2.382,0.493c0.887,0,1.735-0.19,2.522-0.565c0.79-0.38,1.482-0.932,2.062-1.641
				c0.071-0.085,0.145-0.181,0.222-0.285c0.415,0.452,0.828,0.848,1.235,1.182c0.478,0.394,1.03,0.716,1.642,0.957
				c0.623,0.234,1.231,0.351,1.82,0.351c1.841,0,3.149-1.093,3.683-3.078c0.125-0.463-0.098-0.949-0.529-1.159l-0.247-0.12
				c-0.138-0.067-0.287-0.101-0.437-0.101c-0.126,0-0.253,0.024-0.374,0.072c-0.262,0.105-0.467,0.317-0.565,0.583
				c-0.167,0.455-0.322,0.628-0.38,0.681c-0.042,0.039-0.1,0.074-0.232,0.074c-0.145,0-0.327-0.063-0.541-0.188
				c-0.188-0.111-0.528-0.357-1.055-0.882c-0.353-0.361-0.72-0.776-1.083-1.223c-0.269-0.323-0.516-0.633-0.74-0.932
				c0.271-0.55,0.5-1.041,0.673-1.439l0.386-0.871c0.739-1.649,1.162-2.267,1.386-2.494c0.125-0.128,0.248-0.216,0.377-0.271
				c0.092-0.042,0.254-0.096,0.649-0.136c0.511-0.052,0.899-0.482,0.899-0.995v-0.263c0-0.552-0.448-1-1-1h-4.922
				c-0.552,0-1,0.448-1,1v0.286c0,0.493,0.36,0.913,0.847,0.988c0.927,0.144,0.927,0.435,0.927,0.609
				c0,0.221-0.051,0.621-0.292,1.273c-0.106,0.289-0.255,0.646-0.444,1.068l-2.726-4.086c0.103-0.072,0.213-0.149,0.332-0.231
				c0.896-0.619,1.539-1.242,1.962-1.906c0.452-0.728,0.677-1.544,0.677-2.437c0-1.263-0.452-2.312-1.345-3.118
				C45.854,9.104,44.759,8.701,43.465,8.701L43.465,8.701z M43.625,15.467c-0.2-0.308-0.386-0.608-0.562-0.904
				c-0.459-0.752-0.663-1.205-0.755-1.455c-0.109-0.289-0.163-0.566-0.163-0.833c0-0.41,0.097-0.719,0.296-0.945
				c0.121-0.138,0.293-0.277,0.669-0.277c0.355,0,0.599,0.122,0.813,0.409c0.27,0.359,0.406,0.892,0.406,1.585
				c0,0.629-0.121,1.227-0.359,1.778C43.868,15.072,43.753,15.284,43.625,15.467L43.625,15.467z M43.398,27.316
				c-0.341,0-0.657-0.077-0.965-0.235c-0.327-0.165-0.596-0.388-0.827-0.686c-0.27-0.356-0.488-0.804-0.658-1.357
				c-0.176-0.563-0.26-1.135-0.26-1.751c0-0.878,0.16-1.653,0.49-2.368c0.146-0.318,0.324-0.604,0.533-0.857l3.918,5.724
				c-0.114,0.182-0.219,0.337-0.311,0.461c-0.135,0.18-0.297,0.354-0.478,0.513C44.412,27.133,43.939,27.316,43.398,27.316
				L43.398,27.316z"/>
		</g>
		<g>
			<path fill="#FFFFFF" d="M56.074,29.221c-0.132,0-0.26-0.053-0.354-0.146s-0.146-0.221-0.146-0.354v-0.292
				c0-0.267,0.21-0.487,0.477-0.5c0.419-0.02,0.762-0.083,1.017-0.188c0.224-0.094,0.429-0.243,0.604-0.441
				c0.216-0.234,0.353-0.519,0.424-0.88c0.088-0.413,0.132-1.079,0.132-1.987V14.315c0-0.909-0.044-1.577-0.131-1.983
				c-0.072-0.36-0.213-0.654-0.42-0.881c-0.186-0.217-0.381-0.357-0.606-0.442c-0.266-0.104-0.61-0.168-1.027-0.194
				c-0.264-0.016-0.469-0.235-0.469-0.499v-0.294c0-0.276,0.224-0.5,0.5-0.5h8.299c0.91,0,1.437,0.011,1.706,0.035
				c1.032,0.087,1.914,0.361,2.619,0.813c0.621,0.413,1.105,0.963,1.446,1.638c0.332,0.65,0.5,1.399,0.5,2.224
				c0,1.318-0.385,2.422-1.144,3.283c-0.273,0.311-0.591,0.579-0.945,0.796c-0.02,0.012-0.04,0.024-0.06,0.036
				c0.188,0.056,0.359,0.115,0.515,0.176c0.483,0.182,0.94,0.457,1.353,0.816c0.593,0.515,1.061,1.171,1.39,1.952
				c0.325,0.779,0.49,1.616,0.49,2.488c0,0.905-0.165,1.717-0.504,2.483c-0.344,0.766-0.828,1.39-1.438,1.856
				c-0.556,0.419-1.2,0.705-1.974,0.875c-0.722,0.151-1.732,0.227-3.006,0.227L56.074,29.221z M61.977,24.657
				c0,0.624,0.042,1.151,0.125,1.568c0.076,0.361,0.191,0.649,0.354,0.875c0.34,0.482,0.934,0.715,1.818,0.715
				c1.232,0,2.172-0.347,2.872-1.06c0.701-0.716,1.042-1.68,1.042-2.948c0-0.724-0.111-1.397-0.34-2.056
				c-0.211-0.593-0.497-1.055-0.85-1.368c-0.662-0.591-1.754-0.89-3.245-0.89l-1.775,0.001V24.657z M62.513,18.082
				c0.439,0,0.92-0.034,1.431-0.101c0.393-0.063,0.734-0.146,0.973-0.235c0.248-0.09,0.455-0.201,0.62-0.334
				c0.378-0.303,0.658-0.677,0.854-1.143c0.208-0.478,0.313-1.018,0.313-1.608c0-0.655-0.107-1.245-0.328-1.804
				c-0.209-0.541-0.486-0.966-0.826-1.268c-0.288-0.247-0.61-0.414-0.979-0.505c-0.391-0.097-1.033-0.146-1.909-0.146h-0.686v7.144
				H62.513z"/>
			<path fill="#333333" d="M64.373,10.022c0.852,0,1.404,0.01,1.662,0.033c0.961,0.081,1.758,0.328,2.394,0.736
				c0.55,0.366,0.969,0.846,1.27,1.442c0.3,0.588,0.446,1.262,0.446,1.999c0,1.195-0.339,2.182-1.019,2.952
				c-0.241,0.274-0.52,0.509-0.832,0.701c-0.31,0.187-0.756,0.392-1.341,0.621c0.804,0.144,1.424,0.305,1.874,0.482
				c0.443,0.167,0.849,0.416,1.208,0.728c0.54,0.468,0.96,1.064,1.257,1.769c0.297,0.711,0.451,1.479,0.451,2.294
				c0,0.835-0.154,1.586-0.461,2.281c-0.309,0.688-0.741,1.247-1.285,1.662c-0.503,0.379-1.091,0.632-1.778,0.784
				c-0.686,0.143-1.653,0.215-2.898,0.215l-9.247,0.001v-0.292c0.49-0.023,0.879-0.1,1.184-0.225
				c0.295-0.124,0.56-0.314,0.789-0.572c0.271-0.292,0.451-0.66,0.541-1.114c0.095-0.445,0.142-1.138,0.142-2.084V14.315
				c0-0.945-0.046-1.641-0.142-2.087c-0.09-0.447-0.271-0.819-0.541-1.114c-0.229-0.267-0.496-0.459-0.8-0.573
				c-0.302-0.118-0.69-0.195-1.172-0.225v-0.294H64.373 M61.477,18.582h1.037c0.478,0,0.978-0.037,1.496-0.105
				c0.448-0.072,0.813-0.161,1.083-0.262c0.279-0.101,0.536-0.235,0.757-0.412c0.437-0.35,0.772-0.792,1.002-1.338
				c0.235-0.54,0.352-1.147,0.352-1.802c0-0.698-0.115-1.36-0.363-1.988c-0.239-0.62-0.563-1.106-0.958-1.458
				c-0.349-0.3-0.745-0.507-1.19-0.617c-0.442-0.11-1.124-0.161-2.029-0.161h-1.186V18.582 M64.273,28.315
				c1.36,0,2.436-0.402,3.229-1.21c0.792-0.809,1.185-1.908,1.185-3.298c0-0.8-0.13-1.535-0.367-2.22
				c-0.245-0.688-0.576-1.21-0.99-1.578c-0.76-0.678-1.956-1.016-3.577-1.016l-2.275,0.001v5.663c0,0.689,0.05,1.242,0.134,1.665
				c0.088,0.421,0.229,0.778,0.438,1.069C62.482,28.007,63.225,28.315,64.273,28.315 M64.373,9.022h-8.299c-0.552,0-1,0.448-1,1
				v0.294c0,0.528,0.411,0.965,0.938,0.998c0.456,0.028,0.725,0.102,0.871,0.158c0.156,0.059,0.285,0.153,0.404,0.292
				c0.168,0.185,0.266,0.393,0.319,0.66c0.057,0.268,0.122,0.802,0.122,1.891v10.119c0,1.088-0.065,1.62-0.12,1.875
				c-0.056,0.282-0.152,0.488-0.296,0.644c-0.143,0.16-0.282,0.263-0.442,0.33c-0.195,0.08-0.481,0.131-0.843,0.147
				c-0.533,0.025-0.953,0.465-0.953,0.999v0.292c0,0.265,0.105,0.52,0.293,0.707s0.442,0.293,0.707,0.293l0,0l9.247-0.001
				c1.327,0,2.342-0.077,3.103-0.236c0.856-0.189,1.564-0.504,2.176-0.964c0.682-0.522,1.217-1.21,1.595-2.051
				c0.37-0.836,0.549-1.715,0.549-2.691c0-0.939-0.178-1.841-0.528-2.68c-0.36-0.854-0.873-1.573-1.524-2.138
				c-0.358-0.311-0.748-0.566-1.162-0.761c0.123-0.112,0.239-0.23,0.348-0.355c0.841-0.953,1.268-2.168,1.268-3.612
				c0-0.904-0.187-1.729-0.555-2.453c-0.378-0.75-0.919-1.363-1.607-1.82c-0.789-0.506-1.747-0.806-2.863-0.9
				C65.838,9.033,65.299,9.022,64.373,9.022L64.373,9.022z M62.477,11.438h0.186c1.04,0,1.546,0.072,1.788,0.131
				c0.292,0.072,0.546,0.205,0.78,0.406c0.267,0.237,0.499,0.597,0.677,1.059c0.201,0.507,0.296,1.037,0.296,1.628
				c0,0.521-0.09,0.994-0.269,1.403c-0.167,0.397-0.398,0.707-0.71,0.957c-0.124,0.099-0.282,0.184-0.473,0.252
				c-0.155,0.058-0.428,0.139-0.902,0.215c-0.459,0.06-0.919,0.092-1.336,0.092h-0.037V11.438L62.477,11.438z M62.477,19.994
				l1.276,0c1.364,0,2.344,0.256,2.911,0.762c0.29,0.258,0.53,0.65,0.713,1.167c0.208,0.598,0.31,1.217,0.31,1.885
				c0,1.13-0.294,1.98-0.899,2.598c-0.6,0.612-1.423,0.91-2.514,0.91c-1.055,0-1.32-0.376-1.407-0.5
				c-0.124-0.173-0.215-0.405-0.276-0.698c-0.073-0.37-0.113-0.878-0.113-1.46V19.994L62.477,19.994z"/>
		</g>
	</g>
	<g>
		<path fill="#FFFFFF" d="M6.908,55.801c-0.276,0-0.5-0.224-0.5-0.5v-8.406c0-0.276,0.224-0.5,0.5-0.5h78.57
			c0.276,0,0.5,0.224,0.5,0.5v8.406c0,0.276-0.224,0.5-0.5,0.5H6.908z"/>
		<path fill="#333333" d="M85.479,46.895v8.406H6.908v-8.406H85.479 M85.479,45.895H6.908c-0.552,0-1,0.447-1,1v8.406
			c0,0.553,0.448,1,1,1h78.57c0.552,0,1-0.447,1-1v-8.406C86.479,46.342,86.031,45.895,85.479,45.895L85.479,45.895z"/>
	</g>
</g>
<g>
	<rect x="100.086" y="53.553" fill="#439FA7" width="159.414" height="2.648"/>
	<path fill="#333333" d="M259,54.053v1.648H100.586v-1.648H259 M260,53.053h-1H100.586h-1v1v1.648v1h1H259h1v-1v-1.648V53.053
		L260,53.053z"/>
</g>
<g>
	<g>
		<path fill="#439FA7" d="M100.314,41.935c-0.276,0-0.5-0.224-0.5-0.5v-17.82c0-0.276,0.224-0.5,0.5-0.5h2.317
			c0.276,0,0.5,0.224,0.5,0.5V39h7.163c0.276,0,0.5,0.224,0.5,0.5v1.935c0,0.276-0.224,0.5-0.5,0.5H100.314z"/>
		<path fill="#333333" d="M102.632,23.615V39.5h7.663v1.935h-9.98v-17.82H102.632 M102.632,22.615h-2.317c-0.552,0-1,0.448-1,1
			v17.82c0,0.552,0.448,1,1,1h9.98c0.552,0,1-0.448,1-1V39.5c0-0.552-0.448-1-1-1h-6.663V23.615
			C103.632,23.063,103.184,22.615,102.632,22.615L102.632,22.615z"/>
	</g>
	<g>
		<path fill="#439FA7" d="M112.798,41.935c-0.276,0-0.5-0.224-0.5-0.5V28.636c0-0.276,0.224-0.5,0.5-0.5h2.34
			c0.276,0,0.5,0.224,0.5,0.5v12.799c0,0.276-0.224,0.5-0.5,0.5H112.798z M113.912,26.968c-1.087,0-1.906-0.827-1.906-1.924
			c0-1.116,0.842-1.958,1.958-1.958c1.125,0,1.942,0.823,1.942,1.958c0.016,0.501-0.165,0.982-0.509,1.337
			C115.03,26.76,114.502,26.968,113.912,26.968z"/>
		<path fill="#333333" d="M113.963,23.587c0.879,0,1.442,0.631,1.442,1.458c0.025,0.794-0.563,1.424-1.493,1.424
			c-0.822,0-1.406-0.63-1.406-1.424C112.506,24.218,113.118,23.587,113.963,23.587 M115.138,28.636v12.799h-2.34V28.636H115.138
			 M113.963,22.587c-1.378,0-2.458,1.08-2.458,2.458c0,1.359,1.057,2.424,2.406,2.424c0.727,0,1.382-0.262,1.843-0.739
			c0.439-0.453,0.67-1.063,0.649-1.716C116.405,23.644,115.355,22.587,113.963,22.587L113.963,22.587z M115.138,27.636h-2.34
			c-0.552,0-1,0.448-1,1v12.799c0,0.552,0.448,1,1,1h2.34c0.552,0,1-0.448,1-1V28.636C116.138,28.083,115.69,27.636,115.138,27.636
			L115.138,27.636z"/>
	</g>
	<g>
		<path fill="#439FA7" d="M125.438,42.217c-1.657,0-2.984-0.529-3.96-1.576l-0.041,0.819c-0.014,0.266-0.233,0.475-0.5,0.475h-2.021
			c-0.138,0-0.27-0.057-0.365-0.158c-0.094-0.101-0.143-0.236-0.134-0.374c0.053-0.819,0.109-2.111,0.109-3.279V22.696
			c-0.003-0.048,0.001-0.097,0.013-0.146c0.053-0.226,0.253-0.385,0.485-0.385h2.312c0.276,0,0.5,0.224,0.5,0.5v6.648
			c0.989-0.957,2.349-1.471,3.947-1.471c1.542,0,2.916,0.561,3.972,1.623c1.275,1.283,1.97,3.201,1.958,5.403
			C131.712,39.692,128.556,42.217,125.438,42.217z M125.037,30.694c-1.442,0-2.682,1-3.085,2.489l-0.022,0.114
			c-0.045,0.221-0.093,0.449-0.093,0.707v2.296c0,0.232,0.049,0.496,0.099,0.745c0.388,1.39,1.579,2.311,3.026,2.311
			c2.102,0,3.407-1.684,3.407-4.396C128.369,32.837,127.339,30.694,125.037,30.694z"/>
		<path fill="#333333" d="M121.336,22.665v8.027h0.056c0.822-1.423,2.312-2.35,4.391-2.35c3.192,0,5.452,2.646,5.429,6.523
			c0,4.579-2.905,6.851-5.774,6.851c-1.867,0-3.357-0.714-4.309-2.405h-0.085l-0.107,2.123h-2.021
			c0.056-0.875,0.11-2.176,0.11-3.312V22.666h-0.002v-0.001H121.336 M124.962,39.857c2.441,0,3.907-1.972,3.907-4.896
			c0-2.567-1.332-4.767-3.833-4.767c-1.596,0-3.087,1.084-3.567,2.858c-0.051,0.265-0.132,0.577-0.132,0.952v2.296
			c0,0.283,0.056,0.581,0.109,0.844C121.895,38.759,123.258,39.857,124.962,39.857 M121.336,21.665h-2.312
			c-0.463,0-0.866,0.318-0.973,0.769c-0.023,0.099-0.031,0.198-0.025,0.295v15.394c0,1.156-0.056,2.436-0.108,3.248
			c-0.018,0.276,0.08,0.546,0.269,0.748s0.453,0.316,0.729,0.316h2.021c0.463,0,0.856-0.316,0.968-0.749
			c0.957,0.685,2.138,1.031,3.532,1.031c3.366,0,6.774-2.697,6.774-7.851c0.014-2.33-0.733-4.375-2.103-5.752
			c-1.151-1.158-2.647-1.771-4.326-1.771c-1.318,0-2.487,0.324-3.447,0.938v-5.616C122.336,22.113,121.888,21.665,121.336,21.665
			L121.336,21.665z M122.442,33.286c0.351-1.252,1.39-2.091,2.594-2.091c2.091,0,2.833,2.029,2.833,3.767
			c0,0.914-0.209,3.896-2.907,3.896c-1.206,0-2.2-0.763-2.544-1.947c-0.042-0.213-0.082-0.433-0.082-0.609v-2.296
			c0-0.207,0.04-0.4,0.083-0.606L122.442,33.286L122.442,33.286z"/>
	</g>
	<g>
		<path fill="#439FA7" d="M134.162,41.935c-0.133,0-0.26-0.053-0.354-0.146s-0.146-0.221-0.146-0.354l0.001-8.81
			c0-1.614-0.033-2.871-0.104-3.957c-0.009-0.138,0.04-0.273,0.134-0.375c0.094-0.101,0.227-0.158,0.365-0.158h2.048
			c0.27,0,0.492,0.214,0.5,0.485l0.026,0.851c0.804-1.021,1.965-1.628,3.236-1.628c0.276,0,0.501,0.028,0.776,0.096
			c0.224,0.055,0.38,0.255,0.38,0.485v2.196c0,0.152-0.07,0.297-0.189,0.392c-0.089,0.071-0.199,0.108-0.311,0.108
			c-0.038,0-0.076-0.004-0.113-0.013c-0.208-0.048-0.427-0.071-0.689-0.071c-1.335,0-2.35,0.988-2.646,2.58
			c-0.064,0.36-0.096,0.685-0.096,0.99v6.829c0,0.276-0.224,0.5-0.5,0.5H134.162z"/>
		<path fill="#333333" d="M139.868,28.344c0.254,0,0.439,0.027,0.657,0.081v2.196c-0.237-0.055-0.489-0.084-0.802-0.084
			c-1.648,0-2.813,1.247-3.138,2.988c-0.056,0.313-0.104,0.687-0.104,1.082v6.829h-2.318l0.001-8.81c0-1.501-0.027-2.8-0.105-3.989
			h2.048l0.077,2.509h0.11C136.877,29.427,138.288,28.344,139.868,28.344 M139.868,27.344c-1.039,0-2.01,0.358-2.808,0.991
			c-0.128-0.406-0.507-0.699-0.954-0.699h-2.048c-0.276,0-0.541,0.115-0.73,0.316c-0.189,0.202-0.286,0.473-0.268,0.749
			c0.07,1.075,0.103,2.322,0.103,3.924l-0.001,8.81c0,0.265,0.105,0.52,0.293,0.707s0.442,0.293,0.707,0.293h2.318
			c0.552,0,1-0.448,1-1v-6.829c0-0.275,0.029-0.571,0.088-0.906c0.195-1.042,0.864-2.163,2.154-2.163
			c0.226,0,0.403,0.018,0.576,0.058c0.075,0.018,0.151,0.026,0.227,0.026c0.224,0,0.443-0.075,0.622-0.217
			c0.239-0.19,0.378-0.478,0.378-0.783v-2.196c0-0.46-0.314-0.861-0.761-0.971C140.451,27.376,140.183,27.344,139.868,27.344
			L139.868,27.344z"/>
	</g>
	<g>
		<path fill="#439FA7" d="M145.788,42.216c-2.915,0-4.439-2.099-4.439-4.173c0-3.257,2.814-5.161,7.74-5.256
			c-0.073-1.495-0.866-2.223-2.417-2.223c-1.072,0-2.229,0.326-3.095,0.871c-0.081,0.051-0.173,0.077-0.267,0.077
			c-0.056,0-0.113-0.009-0.167-0.029c-0.144-0.051-0.257-0.166-0.306-0.31l-0.521-1.532c-0.074-0.217,0.009-0.457,0.202-0.581
			c1.196-0.774,2.834-1.218,4.497-1.218c3.479,0,5.395,2.035,5.395,5.729v4.79c0,1.242,0.07,2.245,0.208,2.981
			c0.028,0.146-0.011,0.297-0.106,0.412c-0.095,0.114-0.236,0.181-0.385,0.181h-2.131c-0.254,0-0.468-0.19-0.497-0.443l-0.07-0.603
			C148.478,41.732,147.18,42.216,145.788,42.216z M149.147,35.396c-2.954,0.025-4.452,0.829-4.452,2.39
			c0,1.59,1.311,1.713,1.712,1.713c1.491,0,2.349-0.971,2.63-1.802c0.07-0.201,0.109-0.411,0.109-0.579V35.396z"/>
		<path fill="#333333" d="M147.014,28.342c3.938,0,4.895,2.669,4.895,5.229v4.79c0,1.104,0.053,2.199,0.217,3.074h-2.131
			l-0.187-1.619h-0.082c-0.719,1.007-2.101,1.9-3.938,1.9c-2.613,0-3.939-1.822-3.939-3.673c0-3.062,2.723-4.76,7.631-4.76
			c0.038,0,0.076,0,0.114,0v-0.263c0-1.052-0.29-2.957-2.922-2.957c-1.199,0-2.448,0.372-3.362,0.948l-0.521-1.532
			C143.846,28.795,145.391,28.342,147.014,28.342 M146.408,40c1.674,0,2.736-1.055,3.104-2.142c0.082-0.235,0.136-0.5,0.136-0.739
			v-2.219c-0.118-0.002-0.237-0.003-0.356-0.003c-2.458,0-5.096,0.513-5.096,2.891C144.195,39.279,145.204,40,146.408,40
			 M147.014,27.342c-1.756,0-3.494,0.473-4.769,1.298c-0.385,0.249-0.551,0.728-0.403,1.161l0.521,1.532
			c0.099,0.29,0.324,0.519,0.613,0.621c0.108,0.039,0.222,0.058,0.334,0.058c0.187,0,0.372-0.052,0.533-0.154
			c0.79-0.497,1.847-0.794,2.829-0.794c1.101,0,1.676,0.369,1.857,1.241c-6.91,0.315-7.681,4.08-7.681,5.739
			c0,2.322,1.697,4.673,4.939,4.673c1.198,0,2.334-0.331,3.271-0.926c0.145,0.38,0.512,0.645,0.935,0.645h2.131
			c0.297,0,0.58-0.132,0.77-0.361s0.268-0.531,0.213-0.823c-0.132-0.706-0.2-1.678-0.2-2.889v-4.79
			C152.908,29.612,150.76,27.342,147.014,27.342L147.014,27.342z M146.408,39c-0.805,0-1.212-0.408-1.212-1.213
			c0-1.151,1.16-1.782,3.452-1.878v1.21c0,0.113-0.03,0.267-0.08,0.41C148.325,38.244,147.633,39,146.408,39L146.408,39z"/>
	</g>
	<g>
		<path fill="#439FA7" d="M155.682,41.935c-0.276,0-0.5-0.224-0.5-0.5v-8.811c0-0.021,0.001-0.042,0.004-0.063
			c-0.001-1.685-0.031-2.851-0.102-3.892c-0.009-0.138,0.039-0.274,0.134-0.375c0.094-0.101,0.227-0.159,0.365-0.159h2.047
			c0.27,0,0.491,0.214,0.5,0.484l0.027,0.846c0.802-1.017,1.959-1.622,3.224-1.622c0.288,0,0.516,0.028,0.789,0.096
			c0.223,0.056,0.379,0.255,0.379,0.485v2.196c0,0.151-0.069,0.295-0.187,0.39c-0.089,0.072-0.2,0.11-0.313,0.11
			c-0.036,0-0.072-0.004-0.108-0.012c-0.196-0.043-0.389-0.072-0.694-0.072c-1.34,0-2.354,0.988-2.647,2.579
			c-0.045,0.306-0.096,0.644-0.096,0.991v6.829c0,0.276-0.224,0.5-0.5,0.5H155.682z"/>
		<path fill="#333333" d="M161.381,28.344c0.268,0,0.453,0.027,0.667,0.081v2.196c-0.25-0.055-0.48-0.084-0.802-0.084
			c-1.645,0-2.818,1.247-3.139,2.988c-0.047,0.313-0.104,0.687-0.104,1.082v6.829h-2.321v-8.811h0.004c0,0,0,0,0,0.001v-0.001l0,0
			c0-1.501-0.022-2.8-0.103-3.988h2.047l0.081,2.509h0.104C158.397,29.427,159.809,28.344,161.381,28.344 M161.381,27.344
			c-1.034,0-2.003,0.356-2.798,0.987c-0.129-0.404-0.508-0.695-0.953-0.695h-2.047c-0.277,0-0.542,0.115-0.73,0.317
			c-0.189,0.202-0.286,0.474-0.267,0.75c0.069,1.024,0.1,2.174,0.101,3.833c-0.002,0.029-0.004,0.059-0.004,0.088v8.811
			c0,0.552,0.448,1,1,1h2.321c0.552,0,1-0.448,1-1v-6.829c0-0.31,0.048-0.628,0.09-0.909c0.191-1.04,0.859-2.16,2.154-2.16
			c0.261,0,0.417,0.023,0.586,0.061c0.071,0.016,0.144,0.023,0.216,0.023c0.226,0,0.447-0.076,0.626-0.22
			c0.236-0.19,0.374-0.477,0.374-0.78v-2.196c0-0.459-0.313-0.859-0.757-0.97C161.976,27.376,161.712,27.344,161.381,27.344
			L161.381,27.344z"/>
	</g>
	<g>
		<path fill="#439FA7" d="M163.991,47.77c-0.217,0-0.415-0.142-0.479-0.357l-0.583-1.954c-0.078-0.261,0.067-0.536,0.326-0.619
			c0.301-0.096,1.086-0.392,1.882-1.051c0.724-0.569,1.403-1.465,1.826-2.405c0.068-0.159,0.136-0.318,0.145-0.37
			c-0.001-0.037-0.044-0.19-0.127-0.431l-4.756-11.758c-0.063-0.154-0.044-0.329,0.049-0.467c0.093-0.138,0.249-0.221,0.415-0.221
			h2.551c0.208,0,0.395,0.129,0.468,0.325l2.826,7.556c0.13,0.384,0.258,0.772,0.378,1.147c0.118-0.392,0.243-0.795,0.377-1.19
			l2.556-7.499c0.069-0.203,0.259-0.339,0.473-0.339h2.475c0.165,0,0.319,0.081,0.412,0.217c0.093,0.136,0.114,0.309,0.054,0.462
			l-3.516,9.116c-1.59,4.155-2.787,6.693-4.552,8.206c-1.396,1.22-2.73,1.551-3.106,1.623
			C164.054,47.767,164.022,47.77,163.991,47.77z"/>
		<path fill="#333333" d="M174.793,28.636l-3.516,9.116c-1.68,4.39-2.818,6.641-4.411,8.006c-1.152,1.007-2.295,1.4-2.875,1.511
			l-0.583-1.955c0.583-0.187,1.348-0.562,2.048-1.143c0.636-0.5,1.427-1.394,1.963-2.584c0.104-0.243,0.188-0.431,0.188-0.551
			c0-0.138-0.051-0.323-0.153-0.62l-4.766-11.782h2.551l2.826,7.556c0.289,0.852,0.609,1.854,0.826,2.623h0.049
			c0.24-0.769,0.505-1.746,0.823-2.68l2.555-7.498H174.793 M174.793,27.636h-2.475c-0.428,0-0.809,0.272-0.947,0.677l-2.472,7.254
			l-2.724-7.282c-0.146-0.391-0.52-0.65-0.937-0.65h-2.551c-0.333,0-0.643,0.165-0.829,0.441s-0.223,0.626-0.098,0.934l4.756,11.757
			c0.036,0.104,0.058,0.175,0.071,0.222c-0.019,0.046-0.042,0.098-0.066,0.154l-0.022,0.052c-0.572,1.27-1.416,1.998-1.661,2.19
			c-0.75,0.62-1.463,0.889-1.736,0.977c-0.519,0.166-0.809,0.716-0.653,1.238l0.583,1.955c0.128,0.43,0.523,0.714,0.958,0.714
			c0.063,0,0.125-0.006,0.189-0.018c0.407-0.078,1.851-0.435,3.345-1.741c1.838-1.576,3.066-4.169,4.687-8.401l3.515-9.114
			c0.119-0.308,0.078-0.654-0.108-0.926C175.431,27.798,175.123,27.636,174.793,27.636L174.793,27.636z"/>
	</g>
	<g>
		<path fill="#439FA7" d="M186.953,42.218c-3.95,0-6.016-2.762-6.016-5.491c0-2.244,1.116-4.054,3.319-5.384
			c-0.846-1.183-1.29-2.43-1.29-3.632c0-2.427,1.737-4.884,5.058-4.884c2.584,0,4.46,1.8,4.46,4.28c0,2.025-1.146,3.562-3.697,4.932
			c1.225,1.407,2.531,2.897,3.544,4.036c0.597-1.119,1.026-2.581,1.305-4.442c0.037-0.245,0.247-0.426,0.495-0.426h2.129
			c0.147,0,0.287,0.065,0.382,0.177c0.095,0.112,0.136,0.261,0.111,0.406c-0.489,2.893-1.255,4.962-2.397,6.46
			c0.424,0.449,0.845,0.903,1.28,1.372c0.438,0.472,0.891,0.959,1.372,1.471c0.137,0.145,0.174,0.358,0.095,0.541
			s-0.259,0.302-0.459,0.302h-2.77c-0.133,0-0.26-0.053-0.354-0.147c-0.424-0.425-0.83-0.852-1.356-1.407
			C190.679,41.616,188.969,42.218,186.953,42.218z M185.91,33.418c-1.147,0.825-1.728,1.819-1.728,2.96
			c0,1.79,1.333,3.088,3.17,3.088c1.11-0.001,2.174-0.406,2.998-1.125C189.256,37.15,187.594,35.332,185.91,33.418z M187.827,25.404
			c-1.277,0-1.73,1.128-1.73,2.094c0,1.012,0.446,1.824,0.984,2.543c1.499-0.89,2.356-1.674,2.356-2.836
			c0-0.184-0.044-1.801-1.579-1.801H187.827z"/>
		<path fill="#333333" d="M188.024,23.326c2.23,0,3.96,1.48,3.96,3.78c0,1.878-1.096,3.352-3.947,4.755v0.076
			c1.518,1.747,3.226,3.696,4.376,4.978c0.821-1.247,1.381-2.965,1.718-5.21h2.129c-0.474,2.805-1.244,5.021-2.567,6.57
			c0.954,1.003,1.88,2.021,2.952,3.159h-2.77c-0.506-0.508-0.986-1.017-1.679-1.748c-1.542,1.428-3.278,2.031-5.245,2.031
			c-3.487,0-5.516-2.328-5.516-4.991c0-2.437,1.464-4.102,3.52-5.208v-0.08c-0.937-1.164-1.491-2.453-1.491-3.728
			C183.466,25.542,185.031,23.326,188.024,23.326 M186.955,30.692c1.81-1.029,2.982-1.978,2.982-3.487
			c0-1.08-0.608-2.301-2.079-2.301h-0.031c-1.461,0-2.23,1.221-2.23,2.594C185.597,28.763,186.186,29.739,186.955,30.692
			 M187.353,39.967l0.021-0.001c1.521,0,2.817-0.688,3.674-1.604c-1.063-1.158-3.055-3.325-5.052-5.604
			c-0.965,0.607-2.314,1.751-2.314,3.62C183.682,38.419,185.192,39.967,187.353,39.967 M188.024,22.326
			c-3.61,0-5.558,2.774-5.558,5.384c0,1.16,0.375,2.35,1.091,3.488c-2.046,1.394-3.121,3.288-3.121,5.529
			c0,2.977,2.238,5.991,6.516,5.991c1.975,0,3.673-0.545,5.165-1.662c0.385,0.405,0.712,0.745,1.051,1.085
			c0.188,0.188,0.442,0.294,0.708,0.294h2.77c0.399,0,0.76-0.237,0.918-0.604s0.083-0.792-0.19-1.082
			c-0.48-0.51-0.932-0.997-1.37-1.468c-0.339-0.365-0.67-0.722-1-1.074c1.056-1.531,1.775-3.573,2.242-6.336
			c0.049-0.29-0.032-0.587-0.222-0.812s-0.469-0.354-0.764-0.354h-2.129c-0.495,0-0.916,0.362-0.989,0.852
			c-0.219,1.455-0.528,2.652-0.938,3.621c-0.754-0.852-1.66-1.884-2.637-3.005c2.353-1.393,3.417-2.988,3.417-5.066
			C192.984,24.336,190.898,22.326,188.024,22.326L188.024,22.326z M187.219,29.369c-0.387-0.59-0.622-1.178-0.622-1.871
			c0-0.266,0.059-1.594,1.23-1.594c1.033,0,1.11,0.996,1.11,1.301C188.937,27.962,188.472,28.569,187.219,29.369L187.219,29.369z
			 M187.335,38.967c-1.563-0.008-2.653-1.07-2.653-2.588c0-0.849,0.391-1.612,1.165-2.276c1.416,1.602,2.788,3.108,3.767,4.176
			c-0.661,0.443-1.441,0.688-2.24,0.688C187.365,38.966,187.35,38.967,187.335,38.967L187.335,38.967z"/>
	</g>
	<g>
		<path fill="#439FA7" d="M207.978,42.088c-1.657,0-2.907-0.116-3.664-0.214c-0.249-0.032-0.436-0.245-0.436-0.496V23.851
			c0-0.237,0.167-0.442,0.399-0.49c1.147-0.236,2.809-0.383,4.335-0.383c2.417,0,4.031,0.435,5.233,1.411
			c1.092,0.803,1.679,2.031,1.679,3.535c0,1.588-0.859,2.998-2.304,3.872c1.54,0.728,2.969,2.207,2.969,4.558
			c0,1.53-0.563,2.853-1.674,3.932C213.188,41.502,211.053,42.088,207.978,42.088z M207.188,39.243
			c0.357,0.029,0.824,0.043,1.446,0.043c1.875,0,4.11-0.515,4.11-2.965c0-2.639-2.891-2.923-4.134-2.923h-1.423V39.243z
			 M208.797,30.645c2.059,0,3.389-0.976,3.389-2.486c0-0.595,0-2.407-3.438-2.407c-0.634,0-1.149,0.026-1.561,0.08v4.813H208.797z"
			/>
		<path fill="#333333" d="M208.612,23.478c2.315,0,3.807,0.397,4.918,1.299c0.936,0.689,1.494,1.74,1.494,3.146
			c0,1.719-1.145,3.221-3.036,3.907v0.054c1.708,0.419,3.701,1.828,3.701,4.469c0,1.531-0.619,2.696-1.522,3.574
			c-1.241,1.136-3.268,1.661-6.189,1.661c-1.607,0-2.828-0.11-3.6-0.21V23.851C205.397,23.641,206.988,23.478,208.612,23.478
			 M206.688,31.145h2.109c2.446,0,3.889-1.266,3.889-2.986c0-2.086-1.603-2.907-3.938-2.907c-1.07,0-1.675,0.075-2.061,0.158V31.145
			 M208.634,39.786c2.396,0,4.61-0.861,4.61-3.465c0-2.429-2.109-3.423-4.634-3.423h-1.923v6.79
			C207.154,39.763,207.811,39.786,208.634,39.786 M208.612,22.478c-1.558,0-3.257,0.151-4.437,0.394
			c-0.464,0.096-0.798,0.505-0.798,0.979v17.527c0,0.503,0.373,0.927,0.872,0.992c0.771,0.1,2.043,0.218,3.728,0.218
			c3.25,0,5.432-0.611,6.864-1.923c1.233-1.198,1.848-2.642,1.848-4.312c0-2.211-1.144-3.72-2.528-4.608
			c1.181-0.965,1.863-2.319,1.863-3.821c0-1.669-0.657-3.036-1.901-3.952C212.863,22.948,211.152,22.478,208.612,22.478
			L208.612,22.478z M207.688,26.285c0.307-0.022,0.661-0.033,1.061-0.033c2.938,0,2.938,1.336,2.938,1.907
			c0,1.225-1.106,1.986-2.889,1.986h-1.109V26.285L207.688,26.285z M207.688,33.897h0.923c1.357,0,3.634,0.315,3.634,2.423
			c0,1.636-1.215,2.465-3.61,2.465c-0.296,0-0.629-0.002-0.946-0.015V33.897L207.688,33.897z"/>
	</g>
	<g>
		<path fill="#439FA7" d="M223.964,42.218c-3.93,0-6.674-2.91-6.674-7.077c0-4.296,2.832-7.297,6.887-7.297
			c3.946,0,6.702,2.913,6.702,7.083C230.879,39.937,227.294,42.218,223.964,42.218z M224.115,30.592
			c-2.393,0-3.463,2.241-3.463,4.461c0,2.557,1.439,4.413,3.423,4.413c1.975,0,3.407-1.877,3.407-4.463
			C227.482,33.478,226.778,30.592,224.115,30.592z"/>
		<path fill="#333333" d="M224.177,28.344c3.691,0,6.202,2.67,6.202,6.583c0,4.727-3.303,6.791-6.415,6.791
			c-3.49,0-6.174-2.535-6.174-6.577C217.79,30.857,220.606,28.344,224.177,28.344 M224.075,39.966c2.229,0,3.907-2.082,3.907-4.963
			c0-2.167-1.09-4.911-3.867-4.911c-2.769,0-3.963,2.533-3.963,4.961C220.152,37.859,221.78,39.966,224.075,39.966 M224.177,27.344
			c-4.35,0-7.387,3.207-7.387,7.797c0,4.461,2.95,7.577,7.174,7.577c3.571,0,7.415-2.438,7.415-7.791
			C231.379,30.462,228.417,27.344,224.177,27.344L224.177,27.344z M224.075,38.966c-1.693,0-2.923-1.646-2.923-3.913
			c0-0.405,0.083-3.961,2.963-3.961c2.268,0,2.867,2.559,2.867,3.911C226.982,37.3,225.76,38.966,224.075,38.966L224.075,38.966z"/>
	</g>
	<g>
		<path fill="#439FA7" d="M238.563,42.218c-3.927,0-6.67-2.91-6.67-7.077c0-4.296,2.832-7.297,6.887-7.297
			c3.948,0,6.705,2.913,6.705,7.083C245.485,39.937,241.897,42.218,238.563,42.218z M238.731,30.592c-2.396,0-3.47,2.241-3.47,4.461
			c0,2.557,1.437,4.413,3.416,4.413c1.977,0,3.411-1.877,3.411-4.463C242.089,33.478,241.387,30.592,238.731,30.592z"/>
		<path fill="#333333" d="M238.78,28.344c3.706,0,6.205,2.67,6.205,6.583c0,4.727-3.302,6.791-6.422,6.791
			c-3.474,0-6.17-2.535-6.17-6.577C232.394,30.857,235.225,28.344,238.78,28.344 M238.678,39.966c2.234,0,3.911-2.082,3.911-4.963
			c0-2.167-1.093-4.911-3.857-4.911c-2.767,0-3.97,2.533-3.97,4.961C234.762,37.859,236.388,39.966,238.678,39.966 M238.78,27.344
			c-4.35,0-7.387,3.207-7.387,7.797c0,4.461,2.948,7.577,7.17,7.577c3.574,0,7.422-2.438,7.422-7.791
			C245.985,30.462,243.022,27.344,238.78,27.344L238.78,27.344z M238.678,38.966c-1.689,0-2.916-1.646-2.916-3.913
			c0-0.405,0.083-3.961,2.97-3.961c2.26,0,2.857,2.559,2.857,3.911C241.589,37.3,240.364,38.966,238.678,38.966L238.678,38.966z"/>
	</g>
	<g>
		<path fill="#439FA7" d="M255.887,41.935c-0.16,0-0.312-0.077-0.405-0.208l-4.073-5.641l-0.658,0.725v4.624
			c0,0.276-0.224,0.5-0.5,0.5h-2.312c-0.276,0-0.5-0.224-0.5-0.5v-18.77c0-0.276,0.224-0.5,0.5-0.5h2.312c0.276,0,0.5,0.224,0.5,0.5
			l0.001,10.447c0.114-0.139,0.224-0.269,0.32-0.383l3.778-4.418c0.095-0.111,0.233-0.175,0.38-0.175h2.818
			c0.199,0,0.38,0.119,0.459,0.302s0.041,0.396-0.096,0.542l-4.682,4.949l5.405,7.207c0.113,0.151,0.132,0.354,0.047,0.523
			s-0.258,0.276-0.447,0.276H255.887z"/>
		<path fill="#333333" d="M250.25,22.665l0.001,11.844h0.051c0.319-0.46,0.775-1.013,1.151-1.458l3.776-4.416h2.818l-4.972,5.255
			l5.658,7.543h-2.848l-4.435-6.141l-1.202,1.325v4.816h-2.312v-18.77H250.25 M250.25,21.665h-2.312c-0.553,0-1,0.448-1,1v18.77
			c0,0.552,0.447,1,1,1h2.312c0.553,0,1-0.448,1-1v-4.43l0.113-0.125l3.713,5.141c0.188,0.26,0.489,0.415,0.811,0.415h2.848
			c0.379,0,0.725-0.214,0.895-0.553c0.169-0.339,0.133-0.744-0.095-1.047l-5.152-6.869l4.393-4.643
			c0.274-0.29,0.35-0.716,0.192-1.083c-0.158-0.367-0.52-0.604-0.919-0.604h-2.818c-0.292,0-0.57,0.128-0.76,0.35l-3.219,3.764
			l-0.001-9.085C251.25,22.113,250.803,21.665,250.25,21.665L250.25,21.665z"/>
	</g>
</g>
<g>
	<rect x="100.086" y="9.169" fill="#439FA7" width="159.414" height="2.649"/>
	<path fill="#333333" d="M259,9.669v1.649H100.586V9.669H259 M260,8.669h-1H100.586h-1v1v1.649v1h1H259h1v-1V9.669V8.669L260,8.669z
		"/>
</g>
<g>
</g>
<g>
</g>
<g>
</g>
<g>
</g>
<g>
</g>
<g>
</g>
<g>
</g>
<g>
</g>
<g>
</g>
<g>
</g>
<g>
</g>
<g>
</g>
<g>
</g>
<g>
</g>
<g>
</g>
</svg>
