<?xml version="1.0" encoding="utf-8"?>
<!-- Generator: Adobe Illustrator 16.0.0, SVG Export Plug-In . SVG Version: 6.00 Build 0)  -->
<!DOCTYPE svg PUBLIC "-//W3C//DTD SVG 1.1//EN" "http://www.w3.org/Graphics/SVG/1.1/DTD/svg11.dtd">
<svg version="1.1" id="圖層_1" xmlns="http://www.w3.org/2000/svg" xmlns:xlink="http://www.w3.org/1999/xlink" x="0px" y="0px"
	 width="216px" height="52px" viewBox="0 0 216 52" enable-background="new 0 0 216 52" xml:space="preserve">
<g>
	<path fill="#910B80" d="M215.789,33.008c-1.391-12.313-18.552-12.797-18.552-12.797h-38.163v-0.008
		c-1.895-0.033-3.419-1.663-3.419-3.672c0-1.99,1.505-3.605,3.392-3.661v-0.033l54-0.029l-0.033-12.313h-59.576
		c-4.062,1.569-11.487,6.512-9.94,17.194c1.938,13.405,13.017,14.775,13.017,14.775l43.098-0.058
		c0.05-0.005,0.099-0.019,0.147-0.019c2.153,0,3.897,1.631,3.897,3.64c0,1.988-1.699,3.596-3.809,3.635v0.024h-56.584V26.533h-0.246
		c-2.053,1.455-4.563,2.322-7.285,2.322c-2.548,0-4.924-0.759-6.902-2.056v24.216l-22.282-21c4.127-1.508,7.43-3.533,9.895-6.078
		c2.463-2.54,3.699-5.859,3.699-9.946c0-2.891-0.753-5.273-2.258-7.151c-1.507-1.873-3.536-3.424-6.1-4.646
		c-1.558-0.724-3.215-1.281-4.946-1.699H70.903h-6.451H11.333C7.271,2.063-0.161,7.006,1.384,17.688
		c1.939,13.405,13.02,14.775,13.02,14.775l43.099-0.058c0.053-0.005,0.099-0.019,0.146-0.019c2.158,0,3.901,1.631,3.901,3.64
		c0,1.988-1.705,3.596-3.816,3.635v0.024H0V52h64.452h17.873V33.129h6.442L107.989,52h20.84h1.043h12.237h1.153h62.911
		C218.271,47.07,215.789,33.008,215.789,33.008z M55.13,20.211H16.963v-0.008c-1.891-0.033-3.419-1.663-3.419-3.672
		c0-1.99,1.513-3.605,3.396-3.661v-0.033l47.512-0.024v9.408C59.793,20.348,55.13,20.211,55.13,20.211z M100.854,19.332
		c-0.565,0.935-1.42,1.734-2.572,2.402c-1.22,0.742-2.704,1.226-4.447,1.449c-1.748,0.227-3.87,0.341-6.365,0.341h-5.145V9.148h6.01
		c2.046,0,3.766,0.049,5.143,0.146c1.371,0.095,2.627,0.325,3.749,0.685c1.593,0.527,2.741,1.269,3.433,2.24
		c0.688,0.964,1.028,2.117,1.028,3.458C101.688,17.179,101.411,18.403,100.854,19.332z"/>
	<path fill="#EF821E" d="M135.855,0.167c-6.89,0-12.48,5.524-12.48,12.33c0,6.807,5.59,12.326,12.48,12.326
		c6.893,0,12.482-5.52,12.482-12.326C148.337,5.691,142.748,0.167,135.855,0.167z"/>
	<g>
		<polygon opacity="0.6" fill="#FFFFFF" points="136.746,12.935 136.036,24.76 135.431,12.958 123.835,12.459 135.398,11.713 
			135.99,0 136.709,11.674 148.306,12.313 		"/>
		<polygon opacity="0.7" fill="#FFFFFF" points="136.275,12.532 136.112,18.83 135.86,12.519 128.563,12.421 135.833,12.105 
			136.028,5.936 136.302,12.105 143.574,12.347 		"/>
		<polygon opacity="0.7" fill="#FFFFFF" points="136.995,12.382 144.776,19.764 136.203,13.081 127.471,19.866 135.129,12.442 
			127.361,5.004 136.081,11.571 144.662,4.905 		"/>
		<polygon opacity="0.7" fill="#FFFFFF" points="136.501,12.366 140.546,16.09 136.149,12.674 131.812,16.132 135.77,12.368 
			131.769,8.635 136.129,12.013 140.499,8.59 		"/>
		<polygon fill="#FFFFFF" points="136.283,12.568 136.104,15.362 135.84,12.568 132.607,12.347 135.83,12.182 136.041,9.404 
			136.275,12.197 139.455,12.332 		"/>
		<path opacity="0.14" fill="#FFFFFF" d="M138.038,13.884c-0.981,0.862-2.599,0.875-3.606,0.031c-1.006-0.85-1.02-2.238-0.038-3.101
			c0.997-0.866,2.602-0.874,3.606-0.029C139.005,11.633,139.021,13.023,138.038,13.884z"/>
		<path opacity="0.5" fill="#FFFFFF" d="M137.429,13.371c-0.662,0.57-1.737,0.582-2.405,0.018c-0.666-0.56-0.68-1.485-0.024-2.06
			c0.658-0.578,1.734-0.589,2.41-0.021C138.072,11.871,138.086,12.795,137.429,13.371z"/>
		<path opacity="0.8" fill="#FFFFFF" d="M137.077,13.079c-0.466,0.4-1.233,0.407-1.704,0.01c-0.479-0.405-0.479-1.057-0.018-1.468
			c0.467-0.405,1.224-0.415,1.705-0.009C137.535,12.009,137.542,12.666,137.077,13.079z"/>
	</g>
</g>
<g>
</g>
<g>
</g>
<g>
</g>
<g>
</g>
<g>
</g>
<g>
</g>
<g>
</g>
<g>
</g>
<g>
</g>
<g>
</g>
<g>
</g>
<g>
</g>
<g>
</g>
<g>
</g>
<g>
</g>
</svg>
