<?xml version="1.0" encoding="utf-8"?>
<!-- Uploaded to: SVG Repo, www.svgrepo.com, Generator: SVG Repo Mixer Tools -->
<svg width="800px" height="800px" viewBox="0 -50.7 404.273 404.273" xmlns="http://www.w3.org/2000/svg"><defs><style>.a{fill:#ffffff;}.b{fill:#88c5e9;}.c{fill:#211715;}.d{fill:#73ca6e;}.e{fill:#85807f;}.f{fill:#3d8dcc;}.g{fill:#a0a0a0;}.h{fill:#a98a75;}</style></defs><path class="a" d="M391.349,291.3a39.98,39.98,0,0,1-3.6-3.669s-.283-.493-.656-1.14a30.633,30.633,0,0,0,8.458-1.221c.09-.027.459-.161.874-.33l.484.709a21.1,21.1,0,0,0,2.267,2.979l-1.186.946a37.571,37.571,0,0,0-3.72,4.048l-.186-.151A14.076,14.076,0,0,1,391.349,291.3Z"/><path class="a" d="M375.127,293.8l-.032-.02.157-.882a60.7,60.7,0,0,1,2-7.822s.022-.058.054-.139a31.07,31.07,0,0,0,8.133,1.516l-.013.039c-.786,1.708-4.291,9.9-4.208,9.15A16.634,16.634,0,0,1,375.127,293.8Z"/><path class="a" d="M77.949,268.659,4.012,225.972a4,4,0,0,1-2-3.464V117.9a4,4,0,0,1,2-3.464L72.726,74.765V37.017a4,4,0,0,1,2-3.464L127.3,3.2a4,4,0,0,1,4,0s15.514,8.957,32.694,18.872C176.9,14.624,189.828,7.157,198,2.437a4,4,0,0,1,4,0l75.852,43.792a4.013,4.013,0,0,1,2,3.472c0,36.558,0,67.631,0,104.588a4.013,4.013,0,0,1-2,3.472l-193.99,112a4,4,0,0,1-4,0Z"/><path class="b" d="M91.769,199.228s0-10.156,0-21.4c0-1.349,0-2.714,0-4.08l24.045-13.882V185.35Z"/><path class="b" d="M128.531,178s0-10.155,0-21.4c0-1.349,0-2.714,0-4.079l24.046-13.883v25.482C146.683,167.526,137.777,172.667,128.531,178Z"/><path class="b" d="M91.769,249.851s0-10.156,0-21.4c0-1.35,0-2.715,0-4.08l24.045-13.882v25.482Z"/><path class="b" d="M173.789,151.876V119.217l14.143-8.165c0,3.125,0,31.821,0,32.66Z"/><path class="b" d="M128.531,228.626s0-10.156,0-21.4c0-1.349,0-2.714,0-4.08l24.046-13.882v25.482C146.683,218.149,137.777,223.29,128.531,228.626Z"/><path class="b" d="M209.145,131.463V105.981L233.19,92.1c0,1.365,0,2.731,0,4.081,0,11.245,0,21.4,0,21.4C223.941,122.92,215.035,128.063,209.145,131.463Z"/><path class="b" d="M245.907,110.239V84.756l24.045-13.882c0,1.365,0,2.731,0,4.081,0,11.245,0,21.4,0,21.4Z"/><path class="b" d="M209.145,182.086V156.6l24.045-13.883c0,1.366,0,2.732,0,4.081,0,11.246,0,21.4,0,21.4C223.941,173.543,215.035,178.686,209.145,182.086Z"/><path class="b" d="M245.907,160.862V135.379L269.952,121.5c0,1.365,0,2.731,0,4.081,0,11.245,0,21.4,0,21.4Z"/><path class="c" d="M154.576,230.089V86.605c0-1.785.1-3.6,0-5.388-.008-.135,0-.273,0-.408l-.99,1.727,46.246-26.7,10.322-5.959-3.009-1.727v149.28c0,2.574,4,2.578,4,0v-133c0-5.285.112-10.585,0-15.869,0-.138,0-.276,0-.414a2.019,2.019,0,0,0-3.01-1.727l-24.58,14.191-14.536,8.392c-5.667,3.273-11.44,6.412-17.021,9.828-1.533.938-1.422,1.971-1.422,3.444V230.089c0,2.573,4,2.578,4,0Z"/><path class="b" d="M159.647,226.009V184.185l42.427-24.5v41.824Z"/><path class="c" d="M151.567,119.139l-32.385,18.7L88.2,155.723l-4.1,2.369-1.948,1.124a5.04,5.04,0,0,0-2.016,1.467,3.988,3.988,0,0,0-.273,2.038v98.794c0,2.574,4,2.578,4,0V161.693l-.991,1.727,65.94-38.071,4.775-2.756c2.228-1.287.216-4.745-2.019-3.454Z"/><path class="c" d="M151.563,136.916l-25.448,14.693L92.732,170.882l-11.689,6.749c-2.228,1.286-.216,4.744,2.019,3.454l25.448-14.693,33.383-19.273,11.689-6.749c2.229-1.287.217-4.745-2.019-3.454Z"/><path class="c" d="M93.769,199.228V173.75c0-2.573-4-2.578-4,0v25.478c0,2.574,4,2.578,4,0Z"/><path class="c" d="M210.154,46.422l-8.848-5.109L180.4,29.245l-24.083-13.9L137.548,4.5l-4.6-2.655a6.607,6.607,0,0,0-6.837-.272c-4.793,2.658-9.5,5.485-14.245,8.225L88.027,23.563c-4.715,2.723-9.481,5.372-14.152,8.171a6.268,6.268,0,0,0-3.149,5.283c-.021.539,0,1.083,0,1.622V74.765l.991-1.727L56.1,82.053l-30.65,17.7L4.06,112.1a16.685,16.685,0,0,0-1.585.977,6.276,6.276,0,0,0-2.463,5.209c-.019,2.049,0,4.1,0,6.149v92.1c0,1.912-.027,3.826,0,5.738a6.29,6.29,0,0,0,3,5.427c.405.255.831.48,1.245.719l20.657,11.927,31.035,17.918L77.317,270.6c.494.285.983.589,1.486.858,4.257,2.278,8.242-1.226,11.83-3.3l31.932-18.436L186.188,213,249.571,176.4l16.086-9.287,7.922-4.574,3.842-2.218a10.013,10.013,0,0,0,3.149-2.346c1.683-2.163,1.282-4.971,1.282-7.545V123.863q0-34.087,0-68.176c0-4,.89-8.751-3.04-11.212-.5-.31-1.017-.587-1.524-.879l-8.231-4.753L240.333,22.261,211.988,5.9l-7.795-4.5c-.393-.227-.78-.47-1.181-.682-4.2-2.221-8.215,1.264-11.751,3.305q-14.139,8.166-28.282,16.328c-2.229,1.286-.217,4.744,2.019,3.454q10.57-6.1,21.139-12.2l8.591-4.96L198.4,4.519a2.462,2.462,0,0,1,2.608-.344c2.675,1.278,5.216,3.011,7.781,4.492L248.1,31.361c9.474,5.47,18.974,10.9,28.425,16.411a2.366,2.366,0,0,1,1.238,1.326,7.8,7.8,0,0,1,.093,2.246v9.173q0,12,0,23.995V151.53a20.228,20.228,0,0,1,0,3c-.246,1.588-2.2,2.2-3.407,2.9l-5.763,3.327-10.563,6.1L214.66,191.937l-86.671,50.04L84.773,266.928c-1.358.784-2.533,1.8-4.07,1.011-.37-.189-.724-.417-1.083-.625l-4.66-2.69L37.074,242.75,5.956,224.784c-.983-.568-1.854-.989-1.944-2.324-.054-.808,0-1.639,0-2.448V121.3c0-1.046-.044-2.1,0-3.148a2.6,2.6,0,0,1,1.533-2.287l11.174-6.451L57.4,85.925l14.138-8.163c.72-.416,1.524-.783,2.2-1.27,1.536-1.107.991-4.032.991-5.689V38.955c0-1.45-.247-2.853,1.153-3.758,3.778-2.444,7.845-4.53,11.74-6.779l20.833-12.027L125.375,6.62c.963-.556,1.918-1.21,2.923-1.688,1.3-.619,2.266.158,3.341.778l31.586,18.236L201.544,46.07l6.591,3.806c2.234,1.289,4.25-2.166,2.019-3.454Z"/><path class="c" d="M81.189,42.9,102.332,55.11l33.443,19.308,7.713,4.453c2.233,1.29,4.25-2.166,2.019-3.454L124.364,63.21,90.921,43.9l-7.713-4.453c-2.234-1.289-4.25,2.166-2.019,3.454Z"/><path class="c" d="M78.727,81.962,97.412,92.75l29.9,17.265,6.838,3.948c2.234,1.29,4.25-2.166,2.019-3.454L117.489,99.721l-29.9-17.265-6.838-3.948c-2.233-1.29-4.25,2.165-2.019,3.454Z"/><path class="c" d="M74.565,155.17,53.226,142.85,19.243,123.23l-7.763-4.482c-2.234-1.29-4.25,2.166-2.019,3.454L30.8,134.521l33.984,19.621,7.763,4.482c2.234,1.289,4.25-2.166,2.019-3.454Z"/><path class="c" d="M268.863,51.418,219.18,80.1l-11.045,6.376c-2.228,1.287-.216,4.745,2.019,3.454l47.8-27.6,12.93-7.465c2.229-1.287.217-4.745-2.018-3.454Z"/><path class="c" d="M105.789,192.288V166.81c0-2.574-4-2.578-4,0v25.478c0,2.574,4,2.578,4,0Z"/><path class="c" d="M151.563,162.4,124.2,178.2,92.963,196.232l-12.11,6.992c-2.229,1.287-.217,4.744,2.018,3.454l25.108-14.5,31.867-18.4,13.736-7.931c2.229-1.287.217-4.745-2.019-3.454Z"/><path class="c" d="M117.81,185.348V159.87c0-2.574-4-2.578-4,0v25.478c0,2.573,4,2.578,4,0Z"/><path class="c" d="M82.875,231.816l57.326-33.1,13.385-7.728c2.228-1.287.216-4.745-2.019-3.454l-56.72,32.747-13.991,8.078c-2.229,1.286-.217,4.744,2.019,3.454Z"/><path class="c" d="M130.531,178V152.526c0-2.574-4-2.578-4,0V178c0,2.574,4,2.578,4,0Z"/><path class="c" d="M173.4,101.242c-1.671-1.023-2.171-3.22-2.3-5.051a18.77,18.77,0,0,1,.928-7.019A23.782,23.782,0,0,1,180.1,77.459c1.887-1.414,4.467-2.938,6.927-2.548,2.084.33,3.052,2.25,3.438,4.136.989,4.832-.94,10.325-3.543,14.337a21.156,21.156,0,0,1-5.8,6c-2.063,1.395-5.22,3.2-7.718,1.86-2.267-1.22-4.289,2.232-2.019,3.454,6.083,3.275,13.394-2.16,17.122-6.748,4.056-4.99,6.764-11.78,6.066-18.3-.319-2.975-1.45-5.92-4.051-7.612-2.806-1.827-6.331-1.242-9.207.057-5.873,2.653-10.124,8.323-12.475,14.168-2.219,5.517-3.449,14.761,2.545,18.432C173.581,106.044,175.593,102.586,173.4,101.242Z"/><path class="c" d="M93.769,249.854V224.376c0-2.573-4-2.578-4,0v25.478c0,2.574,4,2.578,4,0Z"/><path class="c" d="M142.552,171.063V145.585c0-2.573-4-2.578-4,0v25.478c0,2.574,4,2.578,4,0Z"/><path class="c" d="M183.545,88.848V81.189a2,2,0,0,0-4,0v7.659a2,2,0,0,0,4,0Z"/><path class="c" d="M178.605,92.856l3.949-2.281a2,2,0,0,0,.718-2.736,2.017,2.017,0,0,0-1.195-.919,2.1,2.1,0,0,0-1.541.2l-3.95,2.281a2,2,0,0,0-.718,2.736,2.021,2.021,0,0,0,1.2.919,2.1,2.1,0,0,0,1.541-.2Z"/><path class="c" d="M105.789,242.911V217.433c0-2.574-4-2.578-4,0v25.478c0,2.573,4,2.578,4,0Z"/><path class="c" d="M151.563,213.022,96.445,244.844l-15.592,9c-2.229,1.286-.217,4.744,2.018,3.453l58.087-33.536,12.624-7.288c2.229-1.287.217-4.745-2.019-3.454Z"/><path class="c" d="M117.81,235.97V210.493c0-2.574-4-2.578-4,0V235.97c0,2.574,4,2.578,4,0Z"/><path class="c" d="M175.789,151.876V119.217l-.99,1.727,14.142-8.165-3.009-1.727q0,14.32,0,28.641,0,2.01,0,4.019l.99-1.727-14.141,8.164c-2.229,1.286-.217,4.744,2.019,3.453q7.071-4.08,14.141-8.163a2.013,2.013,0,0,0,.991-1.727q0-13.733,0-27.466,0-2.6,0-5.194a2.019,2.019,0,0,0-3.01-1.727l-10.7,6.178c-1.137.656-2.358,1.248-3.441,1.987-1.053.717-.991,1.757-.991,2.878v31.508C171.789,154.449,175.789,154.454,175.789,151.876Z"/><path class="c" d="M130.531,228.626V203.148c0-2.573-4-2.578-4,0v25.478c0,2.574,4,2.578,4,0Z"/><path class="c" d="M142.552,221.686V196.208c0-2.574-4-2.578-4,0v25.478c0,2.574,4,2.578,4,0Z"/><path class="c" d="M161.647,226.006V184.185c0-2.574-4-2.578-4,0v41.821c0,2.574,4,2.578,4,0Z"/><path class="c" d="M210.154,107.708,235.6,93.016l33.383-19.274,11.689-6.748c2.229-1.287.217-4.745-2.019-3.454L253.207,78.232,219.824,97.506l-11.689,6.748c-2.228,1.287-.216,4.745,2.019,3.454Z"/><path class="c" d="M223.166,124.521V99.043c0-2.574-4-2.578-4,0v25.478c0,2.573,4,2.578,4,0Z"/><path class="c" d="M210.154,133.191l27.366-15.8,31.234-18.033,12.111-6.992c2.228-1.287.217-4.744-2.019-3.454l-25.108,14.5-31.866,18.4-13.737,7.931c-2.228,1.287-.216,4.745,2.019,3.454Z"/><path class="c" d="M235.186,117.58V92.1c0-2.574-4-2.578-4,0V117.58c0,2.574,4,2.579,4,0Z"/><path class="c" d="M204.074,201.511V159.69c0-2.573-4-2.578-4,0v41.821c0,2.574,4,2.578,4,0Z"/><path class="c" d="M247.907,110.236V84.759c0-2.574-4-2.578-4,0v25.477c0,2.574,4,2.578,4,0Z"/><path class="c" d="M210.154,158.331l56.72-32.747,13.991-8.078c2.228-1.287.217-4.745-2.019-3.454l-57.326,33.1-13.385,7.728c-2.228,1.287-.216,4.745,2.019,3.454Z"/><path class="c" d="M259.928,103.3V77.818c0-2.573-4-2.578-4,0V103.3c0,2.574,4,2.578,4,0Z"/><path class="c" d="M223.166,175.143V149.666c0-2.574-4-2.578-4,0v25.477c0,2.574,4,2.579,4,0Z"/><path class="c" d="M271.949,96.356V70.878c0-2.574-4-2.578-4,0V96.356c0,2.574,4,2.578,4,0Z"/><path class="c" d="M210.154,183.814l55.118-31.823,15.593-9c2.228-1.287.217-4.745-2.019-3.454l-58.087,33.537-12.624,7.288c-2.228,1.287-.216,4.744,2.019,3.454Z"/><path class="c" d="M235.186,168.2V142.726c0-2.574-4-2.578-4,0V168.2c0,2.574,4,2.578,4,0Z"/><path class="c" d="M247.907,160.859V135.381c0-2.573-4-2.578-4,0v25.478c0,2.574,4,2.578,4,0Z"/><path class="c" d="M259.928,153.919V128.441c0-2.574-4-2.578-4,0v25.478c0,2.574,4,2.578,4,0Z"/><path class="c" d="M271.949,146.979V121.5c0-2.574-4-2.578-4,0v25.478c0,2.573,4,2.578,4,0Z"/><path class="a" d="M153.576,177.892l52.837-30.5a3.99,3.99,0,0,1,3.993,0l34.046,19.657a1.991,1.991,0,0,1,1,1.729v7.488a2,2,0,0,1-1,1.732l-53.576,30.933a3.983,3.983,0,0,1-3.991,0l-33.309-19.23a1.992,1.992,0,0,1-1-1.73v-8.334A2,2,0,0,1,153.576,177.892Z"/><path class="a" d="M182.369,206.314V248l4.088,2.363a5,5,0,0,0,5,0l4.487-2.593V205.99"/><path class="a" d="M231.867,185.253v34.17l4.088,2.364a5,5,0,0,0,5,0l4.488-2.594V177.412"/><path class="c" d="M180.369,206.314v38.9a18.131,18.131,0,0,0,.036,3.057c.206,1.168,1.161,1.581,2.078,2.111,1.911,1.1,3.809,2.484,6.078,2.638,2.464.168,4.443-1.232,6.468-2.4.629-.364,1.293-.7,1.9-1.1,1.539-1.02,1.022-3.484,1.022-5.087V205.99c0-2.574-4-2.578-4,0v41.781l.991-1.727-2.558,1.478a9.657,9.657,0,0,1-2.962,1.486c-1.25.193-2.252-.544-3.272-1.133l-2.769-1.6.99,1.727V206.314c0-2.574-4-2.578-4,0Z"/><path class="c" d="M229.867,185.253v32.472c0,1.514-.1,2.756,1.313,3.612.805.488,1.632.943,2.447,1.414,2.218,1.282,4.533,2.261,7.126,1.314a31.622,31.622,0,0,0,4.75-2.594c.87-.5,1.713-.9,1.908-2.012a32.078,32.078,0,0,0,.036-5.316V177.412c0-2.574-4-2.578-4,0v41.781l.99-1.727-2.558,1.479a9.654,9.654,0,0,1-2.962,1.485c-1.249.194-2.251-.543-3.271-1.133l-2.77-1.6.991,1.727v-34.17c0-2.574-4-2.578-4,0Z"/><path class="c" d="M154.586,179.619l26.31-15.19L198.963,154c2.793-1.612,5.554-3.475,8.458-4.883,1.7-.824,3.844,1.074,5.281,1.9l6.076,3.507,13.452,7.767,10.112,5.838c.272.158.972.417,1.1.638s0,.961,0,1.218v5.146c0,.236.128.915,0,1.124-.216.354-1.341.774-1.739,1l-2.589,1.494-9.789,5.652-18.046,10.419-13.928,8.042-5.028,2.9c-1.314.759-2.883,2.16-4.439,1.421-1.384-.657-2.7-1.558-4.027-2.325l-5.447-3.144-12.16-7.021-10.027-5.789a7.747,7.747,0,0,1-1.44-.831c-.27-.262-.212-.188-.212-.673v-4.944c0-.322-.244-2.667.01-2.845,2.091-1.467.095-4.937-2.019-3.454-1.847,1.3-1.991,2.976-1.991,5v5.446c0,1.975.218,3.695,2.087,4.863,1.181.738,2.42,1.4,3.626,2.093l24.243,14,4.618,2.666a6.67,6.67,0,0,0,7.261.113l10.488-6.055,36.089-20.836,5.171-2.986c1.607-.928,3.063-1.841,3.257-3.856.134-1.39.031-2.826.031-4.221a21.7,21.7,0,0,0-.1-4.5c-.451-2.059-2.435-2.892-4.081-3.842l-25.55-14.751c-1.959-1.131-3.909-2.283-5.88-3.4a6.373,6.373,0,0,0-6.488-.2c-1.065.574-2.1,1.213-3.147,1.817L185.93,156.9l-32.715,18.888-.648.374C150.338,177.452,152.35,180.91,154.586,179.619Z"/><path class="c" d="M234.343,170.716,191.658,195.36l-3.789,2.187h2.019l-19.374-11.185-2.76-1.594c-2.233-1.289-4.25,2.166-2.019,3.454l19.374,11.185,2.76,1.594a2.022,2.022,0,0,0,2.019,0l33.342-19.25,13.132-7.582c2.228-1.286.216-4.744-2.019-3.453Z"/><path class="a" d="M109.112,268.268a35.968,35.968,0,0,1-5.167.534,33.38,33.38,0,0,1-5.719-.6h-.013c0,3.783.024,8.774.024,11.8,0,1.743,2.471,3.2,5.489,3.2s5.441-1.46,5.441-3.2c0-3-.025-7.954-.025-11.728Z"/><path class="c" d="M107.142,268.268q0,3.818.017,7.635,0,1.668.007,3.338c0,.249-.014.506,0,.755.009.157-.091.287.019-.091-.052.18-.079.086,0,.045.15-.072.017-.03-.068.106-.116.186.064-.059.079-.077-.072.088-.158.161-.23.248-.307.372.144-.074-.082.088a4.911,4.911,0,0,1-2.653.87,8.906,8.906,0,0,1-.895,0,6.21,6.21,0,0,1-.7-.064,7.49,7.49,0,0,1-.8-.186c-.143-.041-.284-.089-.425-.137-.282-.1-.062-.014-.209-.088-.207-.106-.405-.224-.6-.346-.069-.041-.277-.242-.037-.023-.086-.078-.166-.164-.251-.241-.032-.029-.187-.245-.054-.054.144.208-.039-.075-.062-.131-.089-.223.051.13.051.129.018-.5-.051.457-.022-.053.059-1.048,0-2.117,0-3.166q-.012-4.315-.019-8.631c0-2.573-4-2.578-4,0,0,2.916.012,5.832.019,8.748a19.59,19.59,0,0,0,.1,3.876,5.022,5.022,0,0,0,2.424,3.1,10.169,10.169,0,0,0,8.96.474,5.788,5.788,0,0,0,2.973-2.53,8.281,8.281,0,0,0,.475-3.883c-.007-3.24-.022-6.48-.022-9.72,0-2.574-4-2.578-4,0Z"/><path class="d" d="M107.075,231.017a5.124,5.124,0,0,0-6.266,0,31.044,31.044,0,0,0-9.721,13,25.045,25.045,0,0,0-1.431,4.786,40.311,40.311,0,0,0-.489,4.733c-.177,2.793-.339,5.688.669,8.3a10.089,10.089,0,0,0,4.776,5.271c2.158,1.105,6.915,1.691,9.332,1.691,1.823,0,7.174-.586,9.331-1.691a10.085,10.085,0,0,0,4.776-5.271c1.008-2.61.846-5.5.669-8.3a39.888,39.888,0,0,0-.489-4.733,25.045,25.045,0,0,0-1.431-4.786A31.013,31.013,0,0,0,107.075,231.017Z"/><path class="c" d="M108.085,229.29a7.2,7.2,0,0,0-5.771-1.151c-2,.462-3.594,1.913-5.051,3.28A32.744,32.744,0,0,0,90.253,241a31.328,31.328,0,0,0-2.233,5.948,38.112,38.112,0,0,0-.879,7.039c-.261,4.339.024,8.591,2.938,12.05,2.382,2.827,5.745,3.868,9.276,4.372a31.508,31.508,0,0,0,9.163-.032c3.425-.492,6.63-1.4,9.041-4.052,3.022-3.326,3.458-7.585,3.216-11.9a38.112,38.112,0,0,0-1.021-7.922,33.236,33.236,0,0,0-11.264-16.9,2.066,2.066,0,0,0-2.829,0,2.013,2.013,0,0,0,0,2.828,28.542,28.542,0,0,1,10.683,17.144,44.987,44.987,0,0,1,.476,5.741,15.623,15.623,0,0,1-.481,5.368,7.908,7.908,0,0,1-5.783,5.247,27,27,0,0,1-6.993.866,21.412,21.412,0,0,1-7.716-1.305,8.425,8.425,0,0,1-4.777-7.512A32.529,32.529,0,0,1,92.248,246.7a28.969,28.969,0,0,1,5.5-9.983c1.964-2.315,5.062-6.286,8.317-3.969a2.016,2.016,0,0,0,2.736-.717A2.044,2.044,0,0,0,108.085,229.29Z"/><path class="a" d="M300.5,156.622a35.993,35.993,0,0,1-5.168.534,33.28,33.28,0,0,1-5.719-.6H289.6c0,3.782.024,8.774.024,11.8,0,1.743,2.471,3.2,5.489,3.2s5.441-1.46,5.441-3.2c0-3-.025-7.954-.025-11.728Z"/><path class="c" d="M298.532,156.622q0,3.817.017,7.635,0,1.669.008,3.338c0,.249-.015.506,0,.755.009.157-.091.287.019-.09-.052.18-.079.085,0,.045.15-.073.017-.03-.068.1-.116.186.064-.058.079-.077-.071.088-.158.161-.23.248-.306.372.144-.074-.082.089a4.917,4.917,0,0,1-2.652.869,8.928,8.928,0,0,1-.9.005,6.234,6.234,0,0,1-.7-.064,7.179,7.179,0,0,1-.8-.185c-.144-.042-.285-.09-.426-.138-.282-.1-.062-.014-.208-.088-.208-.106-.406-.224-.6-.345-.068-.042-.276-.243-.037-.023-.085-.079-.165-.164-.251-.242-.032-.029-.186-.245-.054-.054.144.208-.039-.075-.061-.13-.09-.224.051.129.051.128.017-.5-.052.457-.023-.053.059-1.048,0-2.117,0-3.166q-.011-4.316-.019-8.63c0-2.574-4-2.578-4,0q0,4.372.019,8.747a19.6,19.6,0,0,0,.1,3.877,5.034,5.034,0,0,0,2.424,3.1,10.172,10.172,0,0,0,8.96.473,5.794,5.794,0,0,0,2.974-2.53,8.292,8.292,0,0,0,.474-3.883c-.007-3.24-.021-6.48-.022-9.72,0-2.574-4-2.578-4,0Z"/><path class="d" d="M298.466,119.371a5.124,5.124,0,0,0-6.266,0,31.035,31.035,0,0,0-9.722,13,25.117,25.117,0,0,0-1.431,4.786,40.113,40.113,0,0,0-.488,4.734c-.177,2.792-.339,5.687.668,8.3A10.089,10.089,0,0,0,286,155.465c2.158,1.1,6.915,1.691,9.332,1.691,1.823,0,7.174-.586,9.332-1.691a10.083,10.083,0,0,0,4.775-5.271c1.008-2.61.846-5.5.669-8.3a39.9,39.9,0,0,0-.489-4.734,25.042,25.042,0,0,0-1.43-4.786A31.036,31.036,0,0,0,298.466,119.371Z"/><path class="c" d="M299.475,117.645a7.2,7.2,0,0,0-5.771-1.152c-2,.462-3.594,1.913-5.051,3.28a32.785,32.785,0,0,0-7.01,9.579,31.319,31.319,0,0,0-2.233,5.947,38.208,38.208,0,0,0-.879,7.039c-.26,4.339.024,8.591,2.938,12.05,2.382,2.828,5.745,3.868,9.276,4.372a31.473,31.473,0,0,0,9.163-.032c3.426-.492,6.63-1.4,9.041-4.052,3.023-3.326,3.459-7.584,3.216-11.895a38.12,38.12,0,0,0-1.021-7.922,33.227,33.227,0,0,0-11.264-16.9,2.067,2.067,0,0,0-2.829,0,2.014,2.014,0,0,0,0,2.829,28.537,28.537,0,0,1,10.683,17.143,44.806,44.806,0,0,1,.476,5.741,15.6,15.6,0,0,1-.481,5.369,7.909,7.909,0,0,1-5.783,5.247,27.042,27.042,0,0,1-6.992.865,21.434,21.434,0,0,1-7.717-1.3,8.428,8.428,0,0,1-4.777-7.513,32.53,32.53,0,0,1,1.179-11.284,28.96,28.96,0,0,1,5.5-9.983c1.964-2.315,5.062-6.286,8.317-3.969a2.017,2.017,0,0,0,2.737-.717A2.042,2.042,0,0,0,299.475,117.645Z"/><path class="a" d="M331.338,254.935a3.915,3.915,0,0,1-2.733-1c-1.588-1.714-1.086-4.011-.577-5.654q2.739-2.392,5.409-4.863a3.108,3.108,0,0,1,3.075.932,4.243,4.243,0,0,1,.706,3.425,10.487,10.487,0,0,1-1.4,3.305,9.227,9.227,0,0,1-2.763,3.253,4.391,4.391,0,0,1-1.076.5A2.517,2.517,0,0,1,331.338,254.935Z"/><path class="a" d="M301.285,251.861a4.13,4.13,0,0,1,.762-3.085,4.483,4.483,0,0,1,5.009-.652,1.761,1.761,0,0,0-.022.435,2.3,2.3,0,0,0,.418,1.039,7.522,7.522,0,0,0,4.678,2.767,1.267,1.267,0,0,0,.946-.1l.026-.019c.962,1.408.435,2.818-.654,3.875a4.3,4.3,0,0,1-3.4,1.026,10.568,10.568,0,0,1-3.474-1.122,9.387,9.387,0,0,1-3.535-2.5,4.413,4.413,0,0,1-.6-1.047A2.573,2.573,0,0,1,301.285,251.861Z"/><path class="a" d="M320.656,237.479l-7.171,14.232a1.4,1.4,0,0,1-.409.555,1.267,1.267,0,0,1-.946.1,7.522,7.522,0,0,1-4.678-2.767,2.3,2.3,0,0,1-.418-1.039,2.721,2.721,0,0,1,.127-.911c1.91-7.143,3.918-11.575,5.294-18.542,5.217,1.015,11.054.783,16.238.262a31.337,31.337,0,0,0,5.375,13.47q-3.611,3.364-7.352,6.586c-1.937-2.37-5.25-7.914-6.024-11.717"/><path class="a" d="M297.684,216.5a3.573,3.573,0,0,1,2.039-2.165,7.668,7.668,0,0,1,4.594-.131c.493,1.431,1.448,4.1,2.224,5.728-.266,2.039-2.417,3.078-4.3,3.218a4.48,4.48,0,0,1-4.162-1.852,5.264,5.264,0,0,1-.674-3.866A6.014,6.014,0,0,1,297.684,216.5Z"/><path class="a" d="M322.158,185.674a9.76,9.76,0,0,0-5.518.213,8.418,8.418,0,0,0-3.8,2.231,8.55,8.55,0,0,0-1.517,2.535,11.155,11.155,0,0,0-.436,7.9,8.114,8.114,0,0,0,5.87,4.956,10.151,10.151,0,0,0,6.631-.433,8.07,8.07,0,0,0,4.159-4.254,12.557,12.557,0,0,0,.65-6.167,6.639,6.639,0,0,0-2.116-4.429,9.748,9.748,0,0,0-3.131-2.277A7.06,7.06,0,0,0,322.158,185.674Z"/><path class="e" d="M322.158,185.674a9.76,9.76,0,0,0-5.518.213,8.418,8.418,0,0,0-3.8,2.231,6.786,6.786,0,0,0-.734.978c1.715.818,4.993,2.187,6.237,4.648,1.068,2.111.986,6.821.411,10.071a8.829,8.829,0,0,0,4.634-.735,8.07,8.07,0,0,0,4.159-4.254,12.557,12.557,0,0,0,.65-6.167,6.639,6.639,0,0,0-2.116-4.429,9.748,9.748,0,0,0-3.131-2.277A7.048,7.048,0,0,0,322.158,185.674Z"/><path class="f" d="M328.8,208.08c-.8-2.689-1.477-4-3.923-5.19l-8.331.965a6.8,6.8,0,0,0-3.306,2.18c-.713.8-1.965,2.72-2.893,3.743a10.5,10.5,0,0,1-5.481,3.514.8.8,0,0,0-.521,1.027,45.487,45.487,0,0,0,2.681,6.524,16.082,16.082,0,0,0,4.938-1.675c-.025.791-.038,1.253-.038,1.253-.047,1.6-.016,6.975,0,8.578a34.844,34.844,0,0,0,3.567.558,66.247,66.247,0,0,0,13.535-.223c.78-5.985,1.583-14.921-.074-20.724C328.905,208.428,328.853,208.251,328.8,208.08Z"/><path class="c" d="M310.494,228.765a110.7,110.7,0,0,1-3.246,11.606c-.625,1.948-1.233,3.9-1.778,5.874a6.158,6.158,0,0,0-.365,2.845,5.348,5.348,0,0,0,1.525,2.644,9.755,9.755,0,0,0,4.666,2.5,3.428,3.428,0,0,0,3.194-.552,8.524,8.524,0,0,0,1.541-2.586l6.352-12.606c1.155-2.293-2.294-4.32-3.454-2.018l-3.688,7.319-1.742,3.456-.922,1.83a7.757,7.757,0,0,1-.915,1.777l.882-.514c-.464.19-1.43-.335-1.876-.578a5.359,5.359,0,0,1-1.092-.744c-.131-.121-.248-.252-.366-.384-.045-.051-.268-.558-.209-.261.052.262.127-.329.148-.411.076-.289.157-.577.237-.865q.232-.829.476-1.657c.323-1.094.663-2.183,1.009-3.27a120.329,120.329,0,0,0,3.48-12.339c.514-2.513-3.341-3.588-3.857-1.064Z"/><path class="c" d="M326.552,228.212c.383,5.6,2.8,10.974,5.789,15.635l.313-2.424q-3.615,3.363-7.352,6.587h2.829A35.848,35.848,0,0,1,325,243.094a22.6,22.6,0,0,1-2.375-5.918c-.543-2.515-4.4-1.451-3.857,1.063.978,4.529,3.653,9.022,6.539,12.6a2.034,2.034,0,0,0,2.829,0q3.737-3.225,7.351-6.587a2.021,2.021,0,0,0,.313-2.424,35,35,0,0,1-4.042-8.075,27.368,27.368,0,0,1-1.2-5.541,2.047,2.047,0,0,0-2-2,2.017,2.017,0,0,0-2,2Z"/><path class="c" d="M333.711,222.386c-.737.22-2.532,1.25-3.3,1.06-1.044-.259-1.11-2.159-1.194-2.99a51.673,51.673,0,0,1-.239-6.711c.026-.884-.109-1.579.794-1.9a6.955,6.955,0,0,1,2.886.108.422.422,0,0,1,.449.446q.661,4.711.946,9.467a.4.4,0,0,1-.343.521Z"/><path class="c" d="M333.18,220.457c-.377.121-.742.29-1.1.447-.153.066-.3.132-.456.2-.477.214.235-.081-.151.066-.314.12-.628.218-.949.315-.365.111.44,0,.077-.016a1.133,1.133,0,0,1,.621.174l-.092-.054c.145.092.6.643.293.213-.206-.292.1.387.016.019-.032-.149-.08-.294-.111-.443-.042-.207.021-.569-.02-.047a14.277,14.277,0,0,0-.2-2.1c-.151-1.954-.157-3.9-.125-5.861a2.209,2.209,0,0,0,.015-.481c-.05.3-.058.38-.022.229s.008-.08-.1.209a1.055,1.055,0,0,1-.374.374q-.369.129-.064.031c.393-.089-.385-.038.085-.009.169.011.34,0,.51.011.093.006.827.108.328.027l.478.076q.143.024.285.045.321.069-.137-.063l-.717-.718c-.213-.4-.046.17-.032.279-.033-.245.025.186.034.255q.079.618.153,1.236.141,1.182.258,2.366t.211,2.37q.045.564.084,1.13.024.339.045.678l.015.226q0,.664.214-.405l.717-.718.208-.059a2,2,0,0,0,1.063,3.858,2.479,2.479,0,0,0,1.813-2.383c0-.734-.093-1.483-.15-2.214q-.166-2.146-.412-4.286-.122-1.069-.264-2.136c-.146-1.109-.166-2.264-1.221-2.933a3.785,3.785,0,0,0-1.581-.461,9.619,9.619,0,0,0-2.065-.172,3.3,3.3,0,0,0-3.278,2.5,19.736,19.736,0,0,0-.12,3.979c.026,1.435.122,2.864.258,4.292a9.532,9.532,0,0,0,.541,2.86,3.165,3.165,0,0,0,3.7,2.006,9.005,9.005,0,0,0,1.832-.659c.226-.1.452-.195.676-.3.418-.189-.325.112-.063.025.113-.037.222-.086.336-.122a2,2,0,0,0-1.063-3.858Z"/><path class="c" d="M323.24,204.33a5.124,5.124,0,0,1,3.3,3.224,24.943,24.943,0,0,1,1.288,6.573,78.586,78.586,0,0,1-.8,15.207l2-2c-5.486.557-11.134.852-16.571-.264L313.929,229c-.027-2.858-.074-5.721,0-8.578.066-2.575-3.934-2.573-4,0-.074,2.857-.027,5.72,0,8.578a2.026,2.026,0,0,0,1.468,1.928,58.277,58.277,0,0,0,17.634.407,2.084,2.084,0,0,0,2-2,71.483,71.483,0,0,0,.665-16.728,24.945,24.945,0,0,0-1.806-7.4,8.5,8.5,0,0,0-4.631-4.331,2.064,2.064,0,0,0-2.737.717,2.014,2.014,0,0,0,.718,2.736Z"/><path class="c" d="M322.689,183.745c-4.422-1.174-10.065.472-12.445,4.562-2.226,3.826-2.807,9.347-.1,13.085,2.668,3.683,7.448,5.037,11.818,4.245a10.447,10.447,0,0,0,5.425-2.976,10.733,10.733,0,0,0,2.793-6.249c.326-2.537.171-5.554-1.224-7.776a11.762,11.762,0,0,0-6.268-4.891c-2.465-.762-3.519,3.1-1.063,3.857a7.7,7.7,0,0,1,3.651,2.722,7.12,7.12,0,0,1,1.035,4.528c-.073,2.91-1.366,5.552-4.212,6.614a8.124,8.124,0,0,1-7.954-1.522c-2.294-2.214-2.114-5.737-1-8.512a5.716,5.716,0,0,1,3.21-3.335,8.3,8.3,0,0,1,5.267-.5C324.116,188.264,325.179,184.406,322.689,183.745Z"/><path class="c" d="M311.431,190.982a24.285,24.285,0,0,1,3.26,1.745c.135.091.268.185.4.279.111.082.105.077-.017-.017l.151.123a9.355,9.355,0,0,1,.772.731c.108.117.217.235.313.362-.166-.221.01.039.072.137.083.134.149.279.233.412.23.362-.1-.374.03.068a12.406,12.406,0,0,1,.4,1.714c-.059-.4.024.243.025.26.017.173.031.346.043.519.025.358.04.716.047,1.075.016.778,0,1.558-.051,2.335q-.035.551-.089,1.1c-.021.215-.046.428-.071.642a2.02,2.02,0,0,1-.042.293,2.067,2.067,0,0,0,1.4,2.461,2.014,2.014,0,0,0,2.46-1.4,32.2,32.2,0,0,0,.4-5.433,14.512,14.512,0,0,0-.716-4.776c-1.173-3.1-4.152-4.753-7-6.086a2.056,2.056,0,0,0-2.736.718,2.017,2.017,0,0,0,.717,2.736Z"/><path class="c" d="M316.017,201.927c-2.384.4-4.158,2.559-5.5,4.388a13.475,13.475,0,0,1-4.547,4.451c-.075.037-.667.29-.286.139-.221.088-.445.167-.67.243a4.573,4.573,0,0,0-1.756.822c-1.18,1.084-1,2.442-.512,3.8a32.266,32.266,0,0,0,2.559,6.085,2.074,2.074,0,0,0,2.258.92,20.667,20.667,0,0,0,9.636-4.88,2.016,2.016,0,0,0,0-2.829,2.043,2.043,0,0,0-2.828,0,16.492,16.492,0,0,1-7.871,3.851l2.259.92a24.255,24.255,0,0,1-2.007-4.717,6.632,6.632,0,0,0-.443-1.246q-.265-.854-.736,1.3l.337-.107c.168-.055.336-.112.5-.172a11.81,11.81,0,0,0,2.457-1.177,18.827,18.827,0,0,0,4.738-4.88c.84-1.147,1.978-2.8,3.477-3.048a2.015,2.015,0,0,0,1.4-2.46,2.046,2.046,0,0,0-2.46-1.4Z"/><path class="c" d="M304.458,220.053c.017-.043.223-.422.055-.144-.031.052-.057.106-.087.158-.04.068-.094.131-.129.2-.088.175.108-.165.131-.167-.049,0-.286.3-.332.345s-.093.078-.138.119c-.169.158.412-.271.064-.058-.123.076-.242.154-.368.224-.085.046-.352.119-.39.193.016-.032.463-.172.13-.061-.059.02-.118.042-.177.061q-.238.079-.481.138c-.141.035-.283.061-.425.089-.339.067.132-.027.168-.019a1.246,1.246,0,0,0-.24.022c-.166.013-.332.018-.5.017-.069,0-.138,0-.207,0s-.469-.056-.134,0c.318.052-.152-.034-.244-.056-.143-.035-.284-.077-.423-.125-.454-.161.259.157-.033-.017-.141-.084-.284-.164-.425-.249-.294-.177.1.052.105.094a1.4,1.4,0,0,0-.192-.161c-.111-.1-.216-.2-.318-.312-.044-.047-.086-.1-.13-.144-.161-.173.031-.1.064.1-.018-.109-.175-.268-.228-.369a1.44,1.44,0,0,0-.105-.215c.015.008.138.387.083.183-.042-.152-.1-.3-.142-.452s-.069-.327-.107-.49c-.064-.276.022.377.012.09,0-.126-.02-.252-.024-.378a5.348,5.348,0,0,1,.012-.537,1.044,1.044,0,0,1,.021-.231s-.079.391,0,.075c.046-.171.083-.343.135-.513.021-.069.046-.137.067-.206.133-.434-.134.254-.023.032.133-.264.284-.5.436-.757.128-.212-.288.281-.1.134a1.214,1.214,0,0,0,.113-.124c.064-.066.479-.424.195-.2s.092-.035.179-.092c.344-.223-.44.136,0,0a5.917,5.917,0,0,1,1.3-.313c-.067,0-.438.039-.062.018.1-.006.208-.016.312-.021.2-.009.41-.011.615,0,.1,0,.2.008.3.014.07,0,.489.068.171.008-.279-.053-.038-.006.016,0,.135.025.269.051.4.08a2,2,0,1,0,1.063-3.857,9.6,9.6,0,0,0-3.115-.2,7.585,7.585,0,0,0-3.15.9,6.967,6.967,0,0,0-.731,10.7,7.467,7.467,0,0,0,8.586.4,5.868,5.868,0,0,0,2.274-2.844,2.007,2.007,0,0,0-1.4-2.46,2.057,2.057,0,0,0-2.46,1.4Z"/><path class="c" d="M311.592,253.621c-.068-.172-.065-.148.007.07q.076.359.006.009c-.011.238,0,.237.029,0a2.7,2.7,0,0,1-.088.343c.105-.376-.137.234-.2.337.187-.292-.251.267-.309.332-.175.153-.181.163-.018.032q-.15.1-.309.189c-.21.1-.215.111-.018.026-.114.043-.229.081-.347.114a3.969,3.969,0,0,1-.538.117c.445-.061-.3-.012-.387-.015a8.193,8.193,0,0,1-2.635-.78,13.2,13.2,0,0,1-2.51-1.415c.292.225-.262-.248-.313-.3s-.5-.588-.309-.317c-.139-.193-.236-.4-.356-.607q-.108-.225.033.084a2.437,2.437,0,0,1-.069-.25c-.039-.217-.037-.179.009.113-.009-.1-.015-.2-.017-.3a6.269,6.269,0,0,1,.028-.628c-.043.529.04-.133.071-.248.048-.177.328-.628.057-.216.308-.468-.172.083.055-.118.416-.367-.315.16.143-.128.081-.05.712-.362.273-.187.207-.083.422-.125.633-.192.231-.042.214-.045-.049-.009.107-.012.214-.021.322-.025.213-.01.421.008.633.013-.527-.014.08.019.218.054.116.029.727.255.2.03a2.057,2.057,0,0,0,2.736-.718,2.021,2.021,0,0,0-.717-2.736,6.607,6.607,0,0,0-6.406.415,4.782,4.782,0,0,0-1.951,2.754,6.6,6.6,0,0,0-.075,3.254c.584,2.326,2.775,3.877,4.807,4.872,2.254,1.1,4.836,2.11,7.357,1.286a6.014,6.014,0,0,0,3.316-2.635,4.791,4.791,0,0,0,.149-4.636,2.008,2.008,0,0,0-2.737-.717,2.056,2.056,0,0,0-.717,2.736Z"/><path class="c" d="M333.618,245.418c.037-.009.445-.088.445-.089,0,.032-.391.02-.149.03.1,0,.206-.01.308-.01s.52.075.272.008c-.264-.072-.005.007.037.021.1.03.2.063.294.089-.314-.081-.107-.025.077.072-.052-.028-.327-.267-.03-.015.018.014.22.212.069.051-.12-.128.134.244.187.313.123.162,0-.016-.017-.072.042.112.079.226.111.341.037.134.094.526.06.176a5,5,0,0,1,.022.636c0,.09-.06.557-.023.366.046-.239-.026.087-.032.109-.033.129-.061.259-.1.387-.055.193-.12.381-.188.569-.135.376-.063.159-.027.077-.041.092-.084.182-.127.273-.189.393-.4.775-.617,1.152-.206.357-.419.71-.644,1.055-.1.158-.209.315-.319.468-.054.076-.108.154-.166.228.128-.165.05-.066-.039.034-.145.163-.289.325-.444.478-.066.065-.135.127-.2.192-.01.009-.239.215-.083.082s-.079.058-.094.068c-.079.053-.158.106-.239.155s-.171.1-.258.146-.266.1-.068.037c-.1.035-.211.06-.314.1-.145.051-.161-.044,0,.007.177.058.115,0-.014-.013-.072,0-.148,0-.22,0a.672.672,0,0,1-.225-.015s.387.083.151.015c-.193-.056-.4-.118-.6-.16s.094.049.121.062c-.067-.032-.136-.062-.2-.1s-.472-.227-.218-.108c.2.092.059.061,0-.012a1.769,1.769,0,0,0-.151-.16c-.162-.138,0,0,.031.051-.081-.12-.158-.24-.228-.367-.041-.074-.076-.15-.115-.225.081.156.077.218.022.017-.05-.183-.09-.367-.135-.55-.055-.224.017.111.017.134,0-.106-.016-.213-.019-.319-.006-.212,0-.425.015-.637.006-.079.017-.158.023-.237.02-.29-.07.345-.007.064.04-.176.066-.355.1-.531.086-.38.193-.754.306-1.127a2.02,2.02,0,0,0-1.4-2.46,2.042,2.042,0,0,0-2.46,1.4,8.5,8.5,0,0,0,.076,6.267,5.576,5.576,0,0,0,5.929,2.912c2.436-.4,4.146-2.605,5.328-4.589,1.271-2.135,2.29-4.558,1.652-7.076a5.011,5.011,0,0,0-2.521-3.281,5.979,5.979,0,0,0-4.025-.338,2.017,2.017,0,0,0-1.4,2.46,2.044,2.044,0,0,0,2.46,1.4Z"/><path class="a" d="M370.192,298.347a3.937,3.937,0,0,1-.329-3.533,3.629,3.629,0,0,1,4.93-1.241,15.591,15.591,0,0,0,6.273,2.05c1.22.652.726,2.3.044,3.416a4.062,4.062,0,0,1-2.859,1.746,10.034,10.034,0,0,1-3.433-.192,8.852,8.852,0,0,1-3.829-1.437A4.185,4.185,0,0,1,370.192,298.347Z"/><path class="a" d="M397.205,300.513a3.678,3.678,0,0,1-3.232-.859,4.019,4.019,0,0,1-.417-5,30.768,30.768,0,0,1,4.437-5.083c1.025-.928,2.733-.119,3.555.9a4.064,4.064,0,0,1,.677,3.281,10.032,10.032,0,0,1-1.342,3.166,8.835,8.835,0,0,1-2.647,3.117A4.206,4.206,0,0,1,397.205,300.513Z"/><path class="a" d="M374.333,253.333a4.235,4.235,0,0,0-2.9-.107,4.976,4.976,0,0,0-2.59,1.773,3.862,3.862,0,0,0-.908,2.812,3.2,3.2,0,0,0,.916,2.222,3.346,3.346,0,0,0,2.484.806l.913-.1c1.329-.573,2.706-1.166,3.324-1.44a2.143,2.143,0,0,0,.571-.328,2.214,2.214,0,0,0,.481-.77l.347-.77v-.1a4.3,4.3,0,0,0-2.009-3.666A4.071,4.071,0,0,0,374.333,253.333Z"/><path class="a" d="M392.063,249.067c2.46-2.062,3.328-5.745,3.614-7.753a8.461,8.461,0,0,0-6.4-9.149,9.58,9.58,0,0,0-8.864,2.121,9.908,9.908,0,0,0-3.251,7.205,7.8,7.8,0,0,0,1.186,4.341,5.538,5.538,0,0,0,3.68,2.475"/><path class="f" d="M378.769,254.183a34.794,34.794,0,0,0-2.14,4.022,2.214,2.214,0,0,1-.481.77,2.143,2.143,0,0,1-.571.328c-1.162.515-5.009,2.159-6.171,2.674.747,3.756,4.036,7.013,7.43,7.456a4.427,4.427,0,0,0,2.019-.134,6.015,6.015,0,0,0,1.679-1.036,38.328,38.328,0,0,0,2.944-2.462c2.6.087,4.056.415,6.845.708a32.644,32.644,0,0,1-.443,8.693q3.1-.325,6.2-.645c.78-5.984,1.405-13.452-.252-19.255-.938-3.285-2.544-6.766-5.685-8.108l-8.133,3.725a6.312,6.312,0,0,0-2.617,2.293Q379.074,253.692,378.769,254.183Z"/><path class="g" d="M377.567,285.018q-1.445-.462-2.855-1.065,2.072-4.284,4.142-8.569a97.238,97.238,0,0,0,9.954.927,1.008,1.008,0,0,0,1.029-1.108l5.813-.6c.42,2.539,1.785,7.873,2.164,9.552.059.26-2.029,1.045-2.26,1.113A30.8,30.8,0,0,1,377.567,285.018Z"/><path class="c" d="M389.134,248.921c3.8,1.742,5.057,6.783,5.5,10.578a62.247,62.247,0,0,1-.551,15.058l2-2-5.373.556a2.058,2.058,0,0,0-2,2,2.014,2.014,0,0,0,2,2l5.373-.556a2.084,2.084,0,0,0,2-2c.72-5.577,1.18-11.241.314-16.828-.716-4.618-2.681-10.173-7.241-12.262a2.059,2.059,0,0,0-2.737.717,2.017,2.017,0,0,0,.718,2.737Z"/><path class="c" d="M390.4,267.356a1,1,0,0,0-.88-.936c-2.281-.266-3.691-.539-6.018-.619l-.037.006c-.92.878-1.925,1.672-2.93,2.456a6.015,6.015,0,0,1-1.679,1.036,4.427,4.427,0,0,1-2.019.134,8.074,8.074,0,0,1-4.072-1.908l-.679.109c-.155.886-.548,3.213-.951,5.4a1,1,0,0,0,.763,1.156,110.106,110.106,0,0,0,16.911,2.123,1,1,0,0,0,1.013-.809A34.141,34.141,0,0,0,390.4,267.356Z"/><path class="c" d="M383.5,267.8c1.678.066,3.332.281,5,.493q.334.043.669.084a1.051,1.051,0,0,1-.75-.735c-.113.141.031,1.01.032,1.209,0,.865-.031,1.731-.093,2.593-.057.788-.132,1.576-.254,2.356-.045.285-.134.6-.153.887q-.28.919.86-.377c-.149,0-.3-.008-.449-.013-1.388-.049-2.773-.157-4.156-.287q-4.354-.411-8.672-1.151c-.667-.115-1.333-.236-2-.369a6.678,6.678,0,0,0-.9-.185q-.855-.261.486.912c.043-.231.084-.463.126-.694.261-1.451.509-2.9.761-4.358a2.058,2.058,0,0,0-1.4-2.461,2.018,2.018,0,0,0-2.46,1.4c-.252,1.453-.5,2.907-.761,4.359a4.619,4.619,0,0,0,.05,3.09,3.163,3.163,0,0,0,2.131,1.612,74.648,74.648,0,0,0,8.836,1.427q2.31.293,4.631.5a24.52,24.52,0,0,0,4,.2c2.258-.182,2.741-2.174,3-4.043a37.9,37.9,0,0,0,.4-5.394,5.9,5.9,0,0,0-.457-2.951,3.274,3.274,0,0,0-2.649-1.5c-1.945-.244-3.88-.521-5.841-.6-2.574-.1-2.569,3.9,0,4Z"/><path class="c" d="M381.279,251.331a4.313,4.313,0,0,1,2.879,2.118,7.314,7.314,0,0,1,1.416,3.841,57.474,57.474,0,0,1,.062,8.928,2,2,0,0,0,4,0,48.824,48.824,0,0,0-.216-10.212,11.2,11.2,0,0,0-2.256-5.187c-1.179-1.548-2.811-3.072-4.821-3.345a2.069,2.069,0,0,0-2.46,1.4,2.013,2.013,0,0,0,1.4,2.46Z"/><path class="c" d="M376.459,275.756l-3.474,7.187a2.045,2.045,0,0,0,1.2,2.938c6.757,2.847,14.992,3.63,22.031,1.272a7.87,7.87,0,0,0,2.935-1.456c1.066-1.029.518-2.421.221-3.65-.635-2.628-1.319-5.258-1.78-7.924a2.017,2.017,0,0,0-2.46-1.4,2.045,2.045,0,0,0-1.4,2.46c.553,3.2,1.432,6.336,2.155,9.5v-1.063l-.016.058.514-.882c.4-.423-.06,0-.283.113a5.916,5.916,0,0,1-.574.243,15.762,15.762,0,0,1-2.095.6,28,28,0,0,1-5.938.729,30.181,30.181,0,0,1-12.25-2.46l1.195,2.938,3.474-7.187c1.115-2.307-2.333-4.338-3.454-2.019Z"/><path class="c" d="M371.919,297.337c-.08-.114-.134-.256-.217-.365q-.094-.2.072.168c-.032-.089-.061-.179-.087-.271-.041-.142-.069-.287-.1-.431-.1-.469,0,.413,0-.066,0-.146,0-.3,0-.442.019-.229.009-.191-.028.113a1.8,1.8,0,0,1,.04-.194c.183-.457-.233.247,0-.026.08-.094.377-.416.042-.08.1-.1.207-.207.307-.311.29-.3-.287.147.05-.034a4.068,4.068,0,0,0,.43-.238q.2-.1-.157.066c.086-.032.174-.06.262-.086a3.018,3.018,0,0,1,.4-.093c0,.016-.478.032,0,.014.131,0,.26,0,.391.006.385,0-.43-.142.031.017.077.026.465.19.165.033-.32-.167.127.082.181.117.213.138.416.287.638.412a14.194,14.194,0,0,0,2.185.956,19.861,19.861,0,0,0,4.554,1.021l-1.009-.273c.3.178-.083-.116-.145-.176q-.144-.211-.01,0l-.1-.252c.111.368.033-.31.008-.1a1.9,1.9,0,0,1-.006.332c-.012,0,.122-.494-.013-.049-.034.115-.072.232-.1.348-.1.354.123-.2.006,0-.062.105-.107.221-.165.327a3.653,3.653,0,0,0-.187.317c-.085.2.268-.251-.039.044-.037.036-.358.355-.159.172s-.177.115-.2.128c-.118.072-.245.127-.363.2-.232.138.411-.118-.058.019a5.882,5.882,0,0,1-.8.2c.216-.031-.031,0-.111,0-.216.007-.429.013-.645.007-.144,0-.288-.013-.431-.023.008,0-.636-.07-.329-.028a18.861,18.861,0,0,1-1.87-.36c-.306-.073-.609-.157-.907-.255q-.224-.073-.442-.159c.33.129-.054-.033-.117-.065q-.209-.105-.407-.226c-.038-.023-.431-.3-.258-.163s-.192-.184-.224-.216a4.949,4.949,0,0,1-.373-.433,2,2,0,0,0-2.829,0,2.061,2.061,0,0,0,0,2.828,7.735,7.735,0,0,0,4.128,2.453,14.8,14.8,0,0,0,4.811.632,6.618,6.618,0,0,0,4.412-1.875,6.272,6.272,0,0,0,1.682-3.95,3.59,3.59,0,0,0-.519-1.972,3.338,3.338,0,0,0-1.091-1.079,2.281,2.281,0,0,0-.6-.275q-.336-.052-.674-.087l.086.011a6.588,6.588,0,0,1-1.617-.327,18.437,18.437,0,0,1-1.975-.6c-.129-.047-.256-.1-.385-.148-.3-.113.419.205-.033-.017-.24-.118-.482-.23-.714-.364a8.779,8.779,0,0,0-1.586-.843,5.475,5.475,0,0,0-3.632.1,5.192,5.192,0,0,0-3.346,3.429,6,6,0,0,0,.743,4.508,2,2,0,1,0,3.454-2.019Z"/><path class="c" d="M396.673,298.585c.018,0-.252.067-.254.059-.021-.084.451-.017.113-.035-.1,0-.2-.006-.295-.009-.431-.014.083-.008.078.011a5.221,5.221,0,0,1-.673-.186c-.268-.077.289.17.062.021-.041-.026-.309-.125-.314-.18,0,0,.29.286.086.064-.073-.079-.148-.158-.221-.238.2.22.01.014-.026-.046-.062-.1-.121-.2-.182-.305-.189-.312-.039-.074-.008.016-.036-.1-.072-.2-.1-.31a1.2,1.2,0,0,1-.071-.31q.046.411.016.069l0-.153c0-.1.006-.2.007-.305,0-.419.02.074-.018.083.025-.006.126-.529.142-.58a1.146,1.146,0,0,1,.1-.279c-.181.19-.12.246-.027.074.1-.189.2-.379.313-.562a7.447,7.447,0,0,1,.586-.827c-.331.39.065-.073.15-.177.169-.206.342-.41.516-.612q.921-1.064,1.916-2.062.216-.217.436-.43c.077-.075.3-.376.411-.391-.011,0-.391.257-.053.073-.057.031-.42.148-.092.069l-.26.038h.139c.182.013.187.011.016-.006s-.166-.019.017.019c.089.035.192.064.282.092-.081-.026-.359-.2-.065-.013.127.08.567.422.227.113.147.133.286.267.425.409-.062-.063-.21-.347-.021-.017.025.043.251.454.135.215-.126-.26.073.239.074.244.031.111.051.224.078.336-.02-.082-.02-.4-.008-.016,0,.117.01.232.009.349s-.01.232-.016.348-.1.325,0-.016c-.081.276-.127.558-.217.833-.041.121-.089.239-.13.36-.066.2.1-.174-.063.139-.146.287-.286.575-.443.856-.283.509-.582,1.013-.907,1.5-.067.1-.135.2-.2.3-.084.117-.252.312-.069.1a8.53,8.53,0,0,1-.6.657c-.085.082-.179.157-.264.239.27-.263-.1.071-.167.113-.107.068-.217.127-.327.189-.356.2.2-.054-.227.087a2,2,0,0,0,1.063,3.857c3-1,4.868-3.984,6-6.787,1.154-2.86.5-6.461-2.461-7.922a4.1,4.1,0,0,0-4.583.331,22.977,22.977,0,0,0-2.436,2.477c-1.627,1.816-3.315,3.792-3.376,6.359a5.728,5.728,0,0,0,1.974,4.428,5.635,5.635,0,0,0,4.883,1.114,2,2,0,1,0-1.063-3.857Z"/><path class="c" d="M382.24,297.417A2.859,2.859,0,0,0,383.352,296c.3-.619.585-1.247.868-1.875.719-1.594,1.418-3.2,2.122-4.8.268-.61.534-1.221.812-1.827a2.048,2.048,0,0,0-.718-2.736,2.023,2.023,0,0,0-2.736.717c-1.233,2.684-2.348,5.42-3.607,8.091-.119.252-.238.5-.367.752-.041.079-.089.156-.129.236-.012.023-.038.046-.044.07a1.872,1.872,0,0,1,.668-.664,2.012,2.012,0,0,0-.717,2.736,2.049,2.049,0,0,0,2.736.718Z"/><path class="c" d="M375.324,284.541a54.062,54.062,0,0,0-2,7.821,2.158,2.158,0,0,0,.2,1.542,2,2,0,0,0,3.656-.478,54.075,54.075,0,0,1,2-7.822,2.013,2.013,0,0,0-1.4-2.46,2.047,2.047,0,0,0-2.46,1.4Z"/><path class="c" d="M386.338,289.042a39.833,39.833,0,0,0,4.2,4.208c.632.552,1.28,1.084,1.952,1.588a2.209,2.209,0,0,0,2.605.357,2.155,2.155,0,0,0,.919-1.195,2,2,0,0,0-2.938-2.259l0,0,.478-.2h-.006l.532-.071h-.008l.532.072a.235.235,0,0,1-.045-.014l.478.2a3.629,3.629,0,0,1-.691-.476l.4.313a37.6,37.6,0,0,1-5.581-5.355,2,2,0,0,0-2.828,0,2.052,2.052,0,0,0,0,2.828Z"/><path class="c" d="M400.228,286.8c-.236-.272-.466-.549-.687-.834l.313.405c-.431-.559-.823-1.146-1.215-1.733a2.119,2.119,0,0,0-1.195-.919,1.5,1.5,0,0,0-.8-.036,1.486,1.486,0,0,0-.744.237,2,2,0,0,0-.718,2.737,29.039,29.039,0,0,0,2.215,2.971,2.054,2.054,0,0,0,2.828,0,2.01,2.01,0,0,0,.586-1.414l-.071-.531a2,2,0,0,0-.515-.883Z"/><path class="c" d="M393.477,250.481c2.532-2.207,3.726-5.656,4.165-8.9a10.187,10.187,0,0,0-3.992-9.422,11.385,11.385,0,0,0-10.825-1.6,11.81,11.81,0,0,0-7.421,8.675c-.87,4.518,1.053,10.066,6.089,11.008a2.055,2.055,0,0,0,2.46-1.4,2.017,2.017,0,0,0-1.4-2.46c-2.747-.514-3.716-3.435-3.32-5.945a7.863,7.863,0,0,1,4.652-6.024c4.644-1.913,10.282,1.37,9.835,6.5-.037.428.031-.183-.013.131-.023.156-.051.311-.08.466q-.075.414-.169.824a16.918,16.918,0,0,1-.57,1.949,8.04,8.04,0,0,1-2.242,3.371,2,2,0,1,0,2.828,2.828Z"/><path class="h" d="M396.358,238.464a8.472,8.472,0,0,0-7.24-6.916,9.834,9.834,0,0,0-8.086,1.743,8.4,8.4,0,0,0-2.947,4.152c1.911.333,4.811,3.019,5.572,4.6.921,1.908.5,4.153.207,6.252a2.3,2.3,0,0,0,.115,1.414c.219.4.689.558,1.1.764,1.644.824,3.179.486,7.763-.812a8.373,8.373,0,0,0,2.916-1.75,5.251,5.251,0,0,0,.842-2.267A16.853,16.853,0,0,0,396.358,238.464Z"/><path class="c" d="M398.286,237.933a10.729,10.729,0,0,0-8.636-8.313,12.4,12.4,0,0,0-8.631,1.269,11.426,11.426,0,0,0-4.863,6.022,2.008,2.008,0,0,0,1.4,2.46,2.742,2.742,0,0,1,1.2.5,9.058,9.058,0,0,1,1.432,1.079,5.317,5.317,0,0,1,1.876,2.5,11.767,11.767,0,0,1-.157,4.575,3.686,3.686,0,0,0,2.3,4.233c2.1.963,4.209.63,6.389.086,2.625-.656,6.107-1.478,7.343-4.21,1.4-3.1,1.078-6.993.357-10.2-.563-2.511-4.421-1.448-3.857,1.063a17.2,17.2,0,0,1,.44,4.188c-.009.4-.064,1.175-.085,1.333-.032.233-.209,1.057-.323,1.493a2.234,2.234,0,0,1-.255.647,1.064,1.064,0,0,1-.112.088,7.541,7.541,0,0,1-1.556.907c.22-.1-.159.056-.229.079-.393.123-.794.224-1.191.333-.656.181-1.314.36-1.977.518a8.42,8.42,0,0,1-2.364.331c-.481.015.184.093-.115,0-.149-.048-.316-.087-.468-.124-.379-.092.057.037-.043-.011a1.512,1.512,0,0,0-.44-.212c-.438-.025.259.218.094.33a7.777,7.777,0,0,0,.237-1.873,15.951,15.951,0,0,0,.172-2.4,7.79,7.79,0,0,0-1.153-4.141c-1.416-2.13-3.87-4.426-6.445-4.964l1.4,2.461c1.475-3.707,5.3-5.288,9.176-4.371a6.607,6.607,0,0,1,3.986,2.416c-.159-.21.044.076.094.158.085.136.174.27.255.409.1.163.181.329.267.5.022.041.227.487.127.257s.08.209.1.253c.057.16.113.321.164.483.1.3.177.611.251.92C395.029,241.5,398.887,240.439,398.286,237.933Z"/><path class="c" d="M381,249.192a8.5,8.5,0,0,0-3.52,3.291q-.827,1.266-1.541,2.6-.356.667-.683,1.349c-.1.2-.191.406-.286.609-.039.085-.378.692-.009.335a4.869,4.869,0,0,1-1.319.6l-1.83.79c-1.14.492-2.281.979-3.416,1.481a2.02,2.02,0,0,0-.919,2.258,11.86,11.86,0,0,0,7.267,8.452,6.715,6.715,0,0,0,6.116-.461,27.026,27.026,0,0,0,5.1-4.4,2.049,2.049,0,0,0,0-2.829,2.02,2.02,0,0,0-2.829,0,24.964,24.964,0,0,1-4.011,3.581,3.1,3.1,0,0,1-3.311.255,7.948,7.948,0,0,1-4.474-5.658l-.92,2.258c1.1-.485,2.2-.957,3.307-1.432a25.155,25.155,0,0,0,3.259-1.44,5.007,5.007,0,0,0,1.729-2.379q.656-1.363,1.427-2.666.386-.651.8-1.285c.1-.155.2-.31.311-.461.164-.229-.192.225.037-.046a4.575,4.575,0,0,1,1.737-1.35,2.012,2.012,0,0,0,.717-2.736,2.049,2.049,0,0,0-2.736-.717Z"/><path class="c" d="M371.34,258.839a3.331,3.331,0,0,1-.424.011c-.078,0-.155-.01-.233-.019.33.048.384.051.165.01-.09-.028-.459-.067-.5-.152.267.116.3.126.1.029-.083-.045-.163-.093-.242-.145.211.174.232.189.065.046a1.915,1.915,0,0,1-.16-.165c.182.248.211.282.086.1-.048-.076-.094-.153-.136-.232q-.142-.293.025.094c-.034-.091-.065-.182-.092-.275s-.051-.188-.07-.284q.047.437.018.1c.006-.189,0-.378.01-.567q.006-.13.018-.261c.023-.222.014-.168-.027.164a2.756,2.756,0,0,0,.1-.458c.022-.074.046-.147.074-.219-.131.3-.151.348-.059.155.087-.144.171-.288.26-.431q.186-.255-.059.073c.061-.074.123-.146.187-.218.12-.136.244-.267.375-.392.063-.06.127-.119.192-.176.165-.136.129-.112-.107.074.1.058.7-.543.884-.51q-.408.171-.1.052c.09-.031.181-.061.273-.089.157-.047.317-.078.476-.118q.325-.055-.149.013c.088-.01.176-.017.264-.022.184-.009.365,0,.548.008q.334.033-.109-.015c.1.018.192.039.286.065s.193.055.288.089q.31.117-.046-.02c.162,0,.4.238.541.32q.262.189-.087-.073c.068.056.134.113.2.173.128.119.242.248.361.376q.2.248-.074-.1c.05.071.1.142.143.216a4.513,4.513,0,0,1,.246.455c-.113-.279-.132-.317-.054-.115.029.083.055.167.079.251a2.078,2.078,0,0,1,.114.523q-.058-.46-.028-.123c.006.093.009.186.009.28a2,2,0,1,0,4,0,6.28,6.28,0,0,0-7.837-6.105,7.415,7.415,0,0,0-4.271,3.089,6.019,6.019,0,0,0-.639,5.161,4.915,4.915,0,0,0,2.139,2.654,5.288,5.288,0,0,0,2.972.7,2,2,0,0,0,0-4Z"/></svg>