<?xml version="1.0" encoding="utf-8"?>
<!-- Generator: Adobe Illustrator 16.0.0, SVG Export Plug-In . SVG Version: 6.00 Build 0)  -->
<!DOCTYPE svg PUBLIC "-//W3C//DTD SVG 1.1//EN" "http://www.w3.org/Graphics/SVG/1.1/DTD/svg11.dtd">
<svg version="1.1" id="圖層_1" xmlns="http://www.w3.org/2000/svg" xmlns:xlink="http://www.w3.org/1999/xlink" x="0px" y="0px"
	 width="500px" height="540px" viewBox="0 0 500 540" enable-background="new 0 0 500 540" xml:space="preserve">
<path fill="#EF4832" d="M439.945,0l-0.086,183.997c19.392,0.383,40.163,0.008,59.678-0.048c-0.345,21.362,0.011,43.692,0.027,65.14
	l0.161,150.481l-0.027,88.522c-0.038,15.13-0.804,37.344,0.302,51.765l-328.286,0.023L61.88,539.82
	c-20.048-0.012-41.462-0.422-61.424,0.18l0.076-221.001l-0.031-80.15C0.634,220.087,0.466,201.324,0,182.567l40.088-0.096
	c4.619-0.007,16.526-0.297,20.516,0.335l0.033-181.88c25.157,14.003,52.476,31.848,77.549,46.869l55.995,33.824
	c15.859,9.432,35.178,20.486,50.543,30.33c5.291,2.862,6.562,1.101,11.446-1.724l119.334-71.587l38.261-23.16
	C422.114,10.402,431.417,4.53,439.945,0z"/>
<path fill="#F4F2D8" d="M439.945,0l-0.086,183.997c-0.132,26.062,0.307,52.447,0.03,78.445
	c-24.842,12.868-48.97,29.627-73.16,43.845c-8.436,4.959-17.416,9.934-25.694,15.07c-3.762,2.677-8.412,4.738-12.411,7.343
	c-3.057,2.031-6.212,4.189-9.343,6.077c-20.898,12.598-41.44,25.673-62.477,38.032c-1.962,1.459-4.212,2.935-6.243,4.329
	c-2.493-1.313-4.882-2.685-6.801-4.777c0.575-4.688,0.365-16.912,0.39-22.018l0.063-45.226l-0.134-145.414
	c0.012-7.163-0.67-42.96,0.645-47.753c5.291,2.862,6.562,1.101,11.446-1.724l119.334-71.587l38.261-23.16
	C422.114,10.402,431.417,4.53,439.945,0z"/>
<path fill="#AEAD8C" d="M328.202,164.24c0.464-7.689-0.962-51.582,1.149-54.602c1.026-1.47,3.131-2.816,4.899-3.021
	c1.793-0.207,3.579,0.756,4.822,2.001c0.825,0.828,1.459,1.907,1.6,3.091c0.652,5.558,0.111,11.8,0.129,17.448
	c0.11,11.953,0.082,23.907-0.084,35.859c7.685-6.307,35.183-38.17,40.348-39.312c1.539-0.34,2.923-0.038,4.213,0.85
	c1.648,1.135,2.443,2.881,2.691,4.847c0.183,1.457-0.024,2.865-0.812,4.123c-2.568,4.103-6.883,7.521-10.288,10.934
	c-7.168,7.254-14.377,14.469-21.624,21.644c-4.145,4.126-10.511,10.114-13.925,14.584l-0.432,0.57
	c0.009,9.095,0.428,25.443-0.616,33.881c13.017-10.575,24.487-24.878,36.797-36.332c2.676-2.49,5.457-4.316,8.676-1.21
	c1.421,1.361,2.189,3.283,2.104,5.265c-0.194,4.4-12.099,14.942-15.495,18.421c-10.27,10.583-20.622,21.083-31.056,31.499
	c-0.239,11.856-0.355,23.714-0.345,35.571c8.454-8.007,16.204-16.752,24.485-24.975c3.793-3.768,10.095-11.56,15.12-12.818
	c3.696-0.926,7.048,3.223,6.732,6.758c-0.182,2.04-2.072,3.766-3.303,5.315c-6.226,6.586-12.905,12.775-19.227,19.272
	c-7.823,7.68-15.871,17-23.913,24.228c-0.048,10.597-0.267,22.742,0.187,33.226c-3.762,2.677-8.412,4.738-12.411,7.343
	c-0.813-13.269-0.297-28.286-0.504-41.791c-5.874-4.67-12.562-12.253-18.126-17.612c-9.847-9.484-19.62-19.289-29.126-29.129
	c2.792-20.542,23.085,4.413,28.513,10.106c6.237,6.601,12.535,13.142,18.896,19.62l-0.219-35.666
	c-14.034-15.41-29.911-29.757-44.35-44.814c-5.971-6.228,2.384-13.992,7.644-10.008c3.81,2.886,8.831,8.22,12.353,11.724
	l24.353,24.544c0.485-9.984,0.459-23.402,0.223-33.364c-11.982-13.633-25.926-26.358-38.532-39.446
	c-2.532-2.629-8.059-7.2-8.208-11.076c-0.191-5.015,6.806-8.452,10.488-4.953C304.499,138.85,316.087,151.857,328.202,164.24z"/>
<path fill="#AEAD8C" d="M244.724,111.949c5.291,2.862,6.562,1.101,11.446-1.724c1.205,20.23,0.202,45.472,0.196,65.974
	l-0.042,129.246l0.002,44.349c0.024,6.021-0.207,17.281,0.478,23.015c-1.962,1.459-4.212,2.935-6.243,4.329
	c-2.493-1.313-4.882-2.685-6.801-4.777c0.575-4.688,0.365-16.912,0.39-22.018l0.063-45.226l-0.134-145.414
	C244.091,152.54,243.409,116.743,244.724,111.949z"/>
<path fill="#F4F2D8" d="M60.637,0.927c25.157,14.003,52.476,31.848,77.549,46.869l55.995,33.824
	c15.859,9.432,35.178,20.486,50.543,30.33c-1.314,4.793-0.632,40.591-0.645,47.753l0.134,145.414l-0.063,45.226
	c-0.025,5.106,0.185,17.331-0.39,22.018c-5.71-4.425-20.644-12.647-27.424-16.699c-14.663-8.762-29.541-17.956-44.246-26.583
	c-2.927-1.48-9.315-5.44-12.085-7.234c-23.914-13.132-47.246-29.422-71.07-42.978c-9.339-5.313-19.396-11.13-28.428-16.888
	l0.098-79.171L60.637,0.927z"/>
<path fill="#AEAD8C" d="M163.437,107.48c5.427-0.287,6.353-0.853,9.38,4.234c-0.182,17.18-0.776,36.644-0.269,53.654
	c2.784-4.008,8.218-9.661,11.737-13.142c7.907-7.816,16.016-17.163,24.032-24.62c7.164-6.665,17.302,1.092,6.734,11.255
	c-14.56,14.001-28.241,29.646-42.651,43.845c0.024,11.484-0.15,23.651,0.105,35.078c12.291-12.404,24.631-25.107,36.98-37.455
	c6-5.998,14.638,2.147,8.467,8.688c-5.838,6.527-12.142,12.758-18.292,19.025L172.53,236.1c-0.105,11.276-0.128,22.552-0.072,33.827
	c11.731-13.582,25.431-25.908,37.562-39.122c3.693-4.024,11.247,0.272,10.437,4.634c-1.099,5.917-10.742,13.697-14.856,18.07
	c-10.719,11.392-22.663,21.904-33.16,33.381c-0.096,13.416,0.251,29.033-0.349,42.188c-2.927-1.48-9.315-5.44-12.085-7.234
	c1.229-2.913,0.457-29.207,0.493-34.347c-9.857-10.225-19.781-20.386-29.769-30.482c-5.63-5.648-11.431-10.852-16.458-17.061
	c-5.24-6.469,4.097-13.84,8.976-8.186c10.732,12.44,27.045,25.147,36.818,37.9c0.211-11.352,0.242-22.708,0.092-34.062
	c-6.045-3.635-15.461-15.147-21.837-21.396c-6.729-6.594-20.759-19.383-26.271-27.533c-2.581-3.817,6.355-11.632,10.334-6.299
	c5.11,4.872,9.737,9.927,14.564,14.944l23.559,24.33c0.102-12.17,0.096-24.342-0.018-36.512
	c-7.395-5.885-15.348-15.536-22.452-22.247c-8.043-7.601-15.678-16.284-23.603-24.057c-6.129-6.376,2.5-16.154,9.814-8.023
	c7.957,8.846,17.162,17.713,25.468,26.266c3.362,3.461,7.551,7.208,10.348,11.064c0.281-17.768-0.394-36.867,0.15-54.297
	C161.397,110.054,162.013,109.053,163.437,107.48z"/>
<path fill="#FEFEF3" d="M383.041,444.187c2.682,2.372,16.021,44.832,18.098,51.118l-7.112,0.104
	c-1.725-3.888-2.812-6.362-3.769-10.499c-4.403,0.344-9.396,0.319-13.852,0.399l-3.272,10.329c-5.624-0.15-11.25-0.237-16.875-0.261
	c-1.569-4.03-7.696-20.775-11.344-21.469c-1.241,2.523-0.648,17.377-0.63,21.433l-7.608,0.067l-0.117-6.094l-0.211-43.668
	c11.138-0.045,28.824-1.685,25.461,17.212c-0.886,4.982-4.373,7.932-8.544,10.353c4.099,6.612,8.264,14.748,12.009,21.687
	c3.404-11.791,8.419-23.693,12.144-35.437C378.979,454.536,380.977,448.887,383.041,444.187z"/>
<path fill="#EF4832" d="M343.958,452.431c8.334,0.371,13.9,5.185,8.135,13.173c-2.048,1.594-4.471,2.475-6.921,1.522
	C342.937,464.211,343.865,456.542,343.958,452.431z"/>
<path fill="#EF4832" d="M382.945,463.658c1.491,1.432,4.551,11.52,5.049,13.933c-0.883,0.929-1.731,0.597-3.465,0.675l-6.225-0.035
	L382.945,463.658z"/>
<path fill="#FEFEF3" d="M172.93,445.964c7.91-0.079,20.131-1.415,26.288,4.146c10.909,9.853,10.809,27.706,1.62,38.766
	c-7.786,7.77-17.597,6.573-27.75,6.551C173.256,479.162,172.98,462.287,172.93,445.964z"/>
<path fill="#EF4832" d="M183.316,453.03c4.278,0.069,8.436,0.284,11.461,3.771c7.681,8.849,6.014,20.853-1.52,28.74
	c-4.455,2.972-7.444,2.819-12.547,2.861c-0.012-8.409-0.453-25.494,0.112-34.613C180.852,453.31,182.571,453.172,183.316,453.03z"/>
<path fill="#F4F2D8" d="M63.42,443.182c1.708,1.282,7.176,7.058,8.953,8.883c5.844,5.956,11.638,11.961,17.381,18.018
	c-8.128,9.304-17.025,17.771-25.868,26.364c-3.683-2.235-21.639-22.222-26.47-26.851C44.299,464.019,57.493,449.913,63.42,443.182z"
	/>
<path fill="#FEFEF3" d="M301.997,445.425c8.175,0.043,23.566-1.079,25.351,10.579c0.73,4.767-2.072,8.643-4.797,12.212
	c1.004,3.663,12.727,4.373,5.685,20.401c-6.537,8.796-16.045,6.884-25.848,6.752C302.439,479.652,302.862,460.986,301.997,445.425z"
	/>
<path fill="#EF4832" d="M309.733,472.232c3.436,0.063,5.795-0.306,8.895,1.618c4.834,3.001,4.214,7.697,1.441,12.083
	c-3.764,2.746-5.776,2.436-10.295,2.456L309.733,472.232z"/>
<path fill="#EF4832" d="M309.792,452.736c7.669,0.049,12.618,3.643,7.664,11.458c-3.313,1.747-3.949,1.672-7.642,2.307
	L309.792,452.736z"/>
<path fill="#FEFEF3" d="M404.992,445.76c5.452-0.045,12.345-0.463,17.585,0.742c7.562,1.737,11.13,10.187,8.897,17.368
	c-1.561,5.017-4.099,6.633-8.376,8.944c3.925,7.24,7.646,15.158,11.28,22.598c-5.443,0.046-7.669,1.951-10.264-3.642
	c-1.733-3.832-6.711-16.267-9.706-17.925l-0.853,0.485c-1.515,3.684-0.885,16.043-0.818,20.838l-7.339,0.151L404.992,445.76z"/>
<path fill="#EF4832" d="M412.862,452.777c8.277-0.186,14.844,2.411,9.736,12.051c-3.33,2.191-5.64,1.627-9.723,1.59L412.862,452.777
	z"/>
<path fill="#FEFEF3" d="M116.648,445.438c5.872-0.408,9.659,1.286,14.213,4.625c-6.439,8.089-3.084,5.173-11.765,2.586
	c-3.172-0.945-6.768,3.793-5.864,5.882c3.697,8.542,17.857,9.375,19.604,20.251c0.994,12.197-6.495,16.479-16.45,17.496
	c-5.784-1.126-8.863-2.878-13.867-5.859c1.593-2.173,2.224-3.458,3.435-5.813c4.93,2.832,14.134,7.709,18.16,0.753
	c3.828-6.817-8.138-11.782-12.393-14.837C101.029,462.845,103.431,448.39,116.648,445.438z"/>
<path fill="#FEFEF3" d="M159.94,445.807l8.51,0.064c-2.988,7.06-6.112,14.06-9.369,20.998c-5.252,10.646-3.708,16.425-3.627,28.443
	l-7.453-0.047c-0.244-4.196,0.102-14.707-0.462-17.977c-1.465-8.512-9.551-23.459-13.697-31.504l8.674,0.009l9.231,20.623
	C154.727,459.582,157.712,452.944,159.94,445.807z"/>
<path fill="#FEFEF3" d="M432.034,445.863l8.428-0.096l7.897,19.345c3.227-6.77,5.222-12.17,7.474-19.205
	c2.641,0.032,5.421,0.218,8.07,0.349c-2.534,6.714-6.061,14.126-9.047,20.744c-4.329,8.74-2.983,18.511-2.853,28.475l-7.243-0.043
	c0.039-4.009,0.313-15.329-0.198-18.833C443.313,468.026,436.233,453.18,432.034,445.863z"/>
<path fill="#FEFEF3" d="M210.465,445.931c9.075-0.142,18.396-0.049,27.491-0.066l-0.028,7.051l-9.88,0.069l0.016,33.103
	l-0.017,9.159l-7.378,0.066c-0.037-13.954-0.166-27.906-0.386-41.857l-9.892,0.221L210.465,445.931z"/>
<path fill="#FEFEF3" d="M257.13,445.797l7.911,0.066c0.111,14.211,0.113,28.425,0.007,42.637l14.814-0.066l-0.028,7.191
	l-22.488,0.102C257.079,479.271,257.233,462.305,257.13,445.797z"/>
<path fill="#FEFEF3" d="M285.719,445.706l7.896,0.102l-0.087,49.584l-7.52,0.029C285.584,479.224,285.797,461.961,285.719,445.706z"
	/>
</svg>
